<svg width="80" height="80" viewBox="0 0 80 80" fill="none" xmlns="http://www.w3.org/2000/svg">
    <path d="M44.2002 35H50.8669V38.3333H44.2002V35Z" fill="url(#paint0_linear_2006_146)"/>
    <path d="M66.667 13.333H13.3337C11.5655 13.333 9.86986 14.0354 8.61961 15.2856C7.36937 16.5359 6.66699 18.2316 6.66699 19.9997V59.9997C6.66699 61.7678 7.36937 63.4635 8.61961 64.7137C9.86986 65.964 11.5655 66.6663 13.3337 66.6663H66.667C68.4351 66.6663 70.1308 65.964 71.381 64.7137C72.6313 63.4635 73.3337 61.7678 73.3337 59.9997V19.9997C73.3337 18.2316 72.6313 16.5359 71.381 15.2856C70.1308 14.0354 68.4351 13.333 66.667 13.333ZM28.0003 49.9997L26.667 45.8997H20.2003L18.7337 49.9997H13.3337L20.667 29.9997H26.067L33.3337 49.9997H28.0003ZM55.867 38.333C55.8806 38.9934 55.7606 39.6496 55.5141 40.2624C55.2677 40.8752 54.8999 41.4318 54.4329 41.8989C53.9658 42.3659 53.4092 42.7337 52.7964 42.9802C52.1836 43.2266 51.5273 43.3466 50.867 43.333H44.2003V49.9997H39.2003V29.9997H50.867C51.5273 29.9861 52.1836 30.1061 52.7964 30.3525C53.4092 30.599 53.9658 30.9668 54.4329 31.4338C54.8999 31.9008 55.2677 32.4575 55.5141 33.0703C55.7606 33.683 55.8806 34.3393 55.867 34.9997V38.333ZM66.667 49.9997H61.667V29.9997H66.667V49.9997Z" fill="url(#paint1_linear_2006_146)"/>
    <path d="M21.4336 42.5666H25.3003L23.3669 37.2666L21.4336 42.5666Z" fill="url(#paint2_linear_2006_146)"/>
    <defs>
        <linearGradient id="paint0_linear_2006_146" x1="44.2002" y1="35.8174" x2="48.8607" y2="40.0387" gradientUnits="userSpaceOnUse">
            <stop offset="0.395" stop-color="#D83F81"/>
            <stop offset="1" stop-color="#4CA2E8"/>
        </linearGradient>
        <linearGradient id="paint1_linear_2006_146" x1="6.66699" y1="26.4116" x2="70.9169" y2="62.7827" gradientUnits="userSpaceOnUse">
            <stop offset="0.395" stop-color="#D83F81"/>
            <stop offset="1" stop-color="#4CA2E8"/>
        </linearGradient>
        <linearGradient id="paint2_linear_2006_146" x1="21.4336" y1="38.5663" x2="25.87" y2="40.0321" gradientUnits="userSpaceOnUse">
            <stop offset="0.395" stop-color="#D83F81"/>
            <stop offset="1" stop-color="#4CA2E8"/>
        </linearGradient>
    </defs>
</svg>