<?xml version="1.0" encoding="UTF-8"?>
<svg version="1.1" xmlns="http://www.w3.org/2000/svg" width="694" height="822">
<path d="M0 0 C3.40983514 1.84131097 6.77284639 3.7432509 10.125 5.6875 C10.125 6.3475 10.125 7.0075 10.125 7.6875 C10.76308594 7.88085938 11.40117187 8.07421875 12.05859375 8.2734375 C13.29802734 8.66402344 13.29802734 8.66402344 14.5625 9.0625 C15.38621094 9.31773438 16.20992188 9.57296875 17.05859375 9.8359375 C19.125 10.6875 19.125 10.6875 20.125 12.6875 C22.43465848 13.74102843 24.7679774 14.74469096 27.125 15.6875 C27.125 16.3475 27.125 17.0075 27.125 17.6875 C28.1975 17.955625 29.27 18.22375 30.375 18.5 C33.77327099 19.57611915 35.45553682 20.47828909 38.125 22.6875 C39.44336295 23.38330267 40.77291086 24.05974433 42.125 24.6875 C42.125 25.3475 42.125 26.0075 42.125 26.6875 C42.76308594 26.88085938 43.40117187 27.07421875 44.05859375 27.2734375 C45.29802734 27.66402344 45.29802734 27.66402344 46.5625 28.0625 C47.38621094 28.31773438 48.20992188 28.57296875 49.05859375 28.8359375 C51.125 29.6875 51.125 29.6875 52.125 31.6875 C53.76863134 32.40909424 55.43550386 33.08101421 57.125 33.6875 C57.125 34.3475 57.125 35.0075 57.125 35.6875 C58.04732422 35.96013672 58.04732422 35.96013672 58.98828125 36.23828125 C59.79652344 36.48964844 60.60476563 36.74101563 61.4375 37 C62.23800781 37.24363281 63.03851563 37.48726562 63.86328125 37.73828125 C66.25412936 38.74169419 67.37598011 39.81922875 69.125 41.6875 C71.72415538 42.87777984 71.72415538 42.87777984 74.125 43.6875 C74.125 44.3475 74.125 45.0075 74.125 45.6875 C76.105 46.3475 78.085 47.0075 80.125 47.6875 C80.125 48.3475 80.125 49.0075 80.125 49.6875 C83.095 50.6775 86.065 51.6675 89.125 52.6875 C89.125 53.3475 89.125 54.0075 89.125 54.6875 C90.07375 54.996875 91.0225 55.30625 92 55.625 C95.125 56.6875 95.125 56.6875 97.125 57.6875 C97.125 58.3475 97.125 59.0075 97.125 59.6875 C98.115 59.914375 99.105 60.14125 100.125 60.375 C104.54856351 61.63241376 108.54923951 63.78974085 112.125 66.6875 C112.125 67.3475 112.125 68.0075 112.125 68.6875 C112.76308594 68.88085938 113.40117187 69.07421875 114.05859375 69.2734375 C115.29802734 69.66402344 115.29802734 69.66402344 116.5625 70.0625 C117.38621094 70.31773438 118.20992188 70.57296875 119.05859375 70.8359375 C121.125 71.6875 121.125 71.6875 122.125 73.6875 C124.43465848 74.74102843 126.7679774 75.74469096 129.125 76.6875 C129.125 77.3475 129.125 78.0075 129.125 78.6875 C130.259375 78.97625 131.39375 79.265 132.5625 79.5625 C133.738125 79.93375 134.91375 80.305 136.125 80.6875 C136.455 81.3475 136.785 82.0075 137.125 82.6875 C139.43465848 83.74102843 141.7679774 84.74469096 144.125 85.6875 C144.125 86.3475 144.125 87.0075 144.125 87.6875 C145.07375 87.996875 146.0225 88.30625 147 88.625 C150.125 89.6875 150.125 89.6875 152.125 90.6875 C152.125 91.3475 152.125 92.0075 152.125 92.6875 C153.259375 92.97625 154.39375 93.265 155.5625 93.5625 C156.738125 93.93375 157.91375 94.305 159.125 94.6875 C159.455 95.3475 159.785 96.0075 160.125 96.6875 C162.08799854 97.52815632 164.08570871 98.15267348 166.1171875 98.80859375 C168.33768291 99.7806005 169.48475303 100.93108823 171.125 102.6875 C173.22489652 103.86324711 173.22489652 103.86324711 175.125 104.6875 C175.125 105.3475 175.125 106.0075 175.125 106.6875 C175.65996094 106.79320313 176.19492187 106.89890625 176.74609375 107.0078125 C179.75619212 107.86784061 182.38599969 109.1669571 185.1875 110.5625 C186.23035156 111.07554688 187.27320313 111.58859375 188.34765625 112.1171875 C190.77553998 113.48991501 192.24821736 114.69200521 194.125 116.6875 C196.72415538 117.87777984 196.72415538 117.87777984 199.125 118.6875 C199.125 119.3475 199.125 120.0075 199.125 120.6875 C200.07375 120.996875 201.0225 121.30625 202 121.625 C205.125 122.6875 205.125 122.6875 207.125 123.6875 C207.125 124.3475 207.125 125.0075 207.125 125.6875 C209.435 126.3475 211.745 127.0075 214.125 127.6875 C214.125 128.3475 214.125 129.0075 214.125 129.6875 C215.07375 129.996875 216.0225 130.30625 217 130.625 C220.125 131.6875 220.125 131.6875 222.125 132.6875 C222.125 133.3475 222.125 134.0075 222.125 134.6875 C223.8265625 135.0896875 223.8265625 135.0896875 225.5625 135.5 C226.738125 135.891875 227.91375 136.28375 229.125 136.6875 C229.455 137.6775 229.785 138.6675 230.125 139.6875 C230.84042969 139.79191406 231.55585937 139.89632812 232.29296875 140.00390625 C235.43663677 140.76272267 237.67715773 141.95243706 240.4375 143.625 C241.32050781 144.14964844 242.20351563 144.67429688 243.11328125 145.21484375 C243.77714844 145.70082031 244.44101562 146.18679687 245.125 146.6875 C245.125 147.3475 245.125 148.0075 245.125 148.6875 C245.9603125 148.873125 245.9603125 148.873125 246.8125 149.0625 C249.34614364 149.74726855 251.70421032 150.67883763 254.125 151.6875 C254.125 152.3475 254.125 153.0075 254.125 153.6875 C255.7646875 154.0896875 255.7646875 154.0896875 257.4375 154.5 C260.97709598 155.63986989 261.7782819 156.1274439 264.125 158.6875 C266.72415538 159.87777984 266.72415538 159.87777984 269.125 160.6875 C269.125 161.3475 269.125 162.0075 269.125 162.6875 C270.07375 162.996875 271.0225 163.30625 272 163.625 C275.125 164.6875 275.125 164.6875 277.125 165.6875 C277.125 166.3475 277.125 167.0075 277.125 167.6875 C277.970625 167.935 278.81625 168.1825 279.6875 168.4375 C283.51576088 169.82959487 286.63008005 171.60399003 290.125 173.6875 C290.785 174.0175 291.445 174.3475 292.125 174.6875 C292.125 175.3475 292.125 176.0075 292.125 176.6875 C292.76308594 176.88085938 293.40117188 177.07421875 294.05859375 177.2734375 C294.88488281 177.53382813 295.71117187 177.79421875 296.5625 178.0625 C297.38621094 178.31773437 298.20992187 178.57296875 299.05859375 178.8359375 C301.125 179.6875 301.125 179.6875 302.125 181.6875 C304.43465848 182.74102843 306.7679774 183.74469096 309.125 184.6875 C309.125 185.3475 309.125 186.0075 309.125 186.6875 C311.105 187.3475 313.085 188.0075 315.125 188.6875 C315.125 189.3475 315.125 190.0075 315.125 190.6875 C319.58 192.1725 319.58 192.1725 324.125 193.6875 C324.125 194.3475 324.125 195.0075 324.125 195.6875 C325.07375 195.996875 326.0225 196.30625 327 196.625 C330.125 197.6875 330.125 197.6875 332.125 198.6875 C332.125 199.3475 332.125 200.0075 332.125 200.6875 C334.435 201.3475 336.745 202.0075 339.125 202.6875 C339.125 203.3475 339.125 204.0075 339.125 204.6875 C339.785 204.6875 340.445 204.6875 341.125 204.6875 C341.1871336 213.56770193 341.24815239 222.4479114 341.30859375 231.328125 C341.31344662 232.04056594 341.31829948 232.75300688 341.32329941 233.48703694 C341.45359833 252.6432393 341.57552534 271.79947072 341.68383789 290.95581055 C341.6942502 292.78964967 341.70466659 294.62348877 341.71508694 296.45732784 C341.75890368 304.17645261 341.80270236 311.89557743 341.84583855 319.61470604 C341.99464985 346.15893668 342.17362353 372.70280132 342.38339476 399.24661878 C342.51003102 415.27162908 342.63326725 431.29663766 342.73805237 447.32180786 C342.74483531 448.35893463 342.74483531 448.35893463 342.75175527 449.41701345 C342.79726951 456.39797354 342.84171929 463.37893983 342.88487082 470.35991492 C342.90642965 473.84333827 342.92824607 477.32675995 342.95022583 480.81018066 C342.95456586 481.49869801 342.95890589 482.18721536 342.96337744 482.89659686 C343.03428763 494.04776036 343.12624406 505.19865896 343.22583146 516.34959907 C343.3265144 527.67289616 343.40464077 538.99614125 343.46187055 550.3197574 C343.494017 556.54004472 343.53642315 562.75985509 343.60462952 568.97986031 C343.6673915 574.7247225 343.70251764 580.46906027 343.71551049 586.21424437 C343.72521745 588.30923057 343.74526378 590.40419779 343.7763232 592.49897623 C343.81699371 595.34223242 343.82090794 598.18320237 343.81529236 601.02668762 C343.8359781 601.85458583 343.85666384 602.68248404 343.87797642 603.53547007 C343.85046291 605.8343935 343.85046291 605.8343935 343.125 609.6875 C340.28498173 612.11942577 340.28498173 612.11942577 337.125 613.6875 C335.51625 614.55375 335.51625 614.55375 333.875 615.4375 C331.125 616.6875 331.125 616.6875 329.125 616.6875 C329.125 617.3475 329.125 618.0075 329.125 618.6875 C327.39973958 619.6640625 325.67447917 620.640625 323.94921875 621.6171875 C322.30517711 622.58178581 320.71099412 623.63017059 319.125 624.6875 C317.13700182 625.38914642 315.13801483 626.06122872 313.125 626.6875 C313.125 627.3475 313.125 628.0075 313.125 628.6875 C310.47761084 630.1481285 309.23051666 630.6875 306.125 630.6875 C305.795 631.6775 305.465 632.6675 305.125 633.6875 C303.47295544 634.38961894 301.80576231 635.05721413 300.125 635.6875 C299.795 636.3475 299.465 637.0075 299.125 637.6875 C297.05859375 638.5390625 297.05859375 638.5390625 294.5625 639.3125 C293.73621094 639.57289063 292.90992188 639.83328125 292.05859375 640.1015625 C291.10146484 640.39160156 291.10146484 640.39160156 290.125 640.6875 C290.125 641.3475 290.125 642.0075 290.125 642.6875 C288.145 643.3475 286.165 644.0075 284.125 644.6875 C284.125 645.3475 284.125 646.0075 284.125 646.6875 C282.990625 647.14125 281.85625 647.595 280.6875 648.0625 C277.07778308 649.25845806 277.07778308 649.25845806 276.125 651.6875 C274.05859375 652.5390625 274.05859375 652.5390625 271.5625 653.3125 C270.73621094 653.57289063 269.90992188 653.83328125 269.05859375 654.1015625 C268.10146484 654.39160156 268.10146484 654.39160156 267.125 654.6875 C267.125 655.3475 267.125 656.0075 267.125 656.6875 C264.5703125 658.4140625 264.5703125 658.4140625 261.25 660.3125 C260.15945313 660.94414063 259.06890625 661.57578125 257.9453125 662.2265625 C255.125 663.6875 255.125 663.6875 253.125 663.6875 C253.125 664.3475 253.125 665.0075 253.125 665.6875 C247.375 668.6875 247.375 668.6875 245.125 668.6875 C245.125 669.3475 245.125 670.0075 245.125 670.6875 C244.60550781 670.94144531 244.08601562 671.19539062 243.55078125 671.45703125 C240.37449435 673.02462571 237.2781247 674.59429366 234.25 676.4375 C232.125 677.6875 232.125 677.6875 230.125 677.6875 C230.125 678.3475 230.125 679.0075 230.125 679.6875 C224.375 682.6875 224.375 682.6875 222.125 682.6875 C222.125 683.3475 222.125 684.0075 222.125 684.6875 C216.375 687.6875 216.375 687.6875 214.125 687.6875 C214.125 688.3475 214.125 689.0075 214.125 689.6875 C211.815 690.3475 209.505 691.0075 207.125 691.6875 C207.125 692.3475 207.125 693.0075 207.125 693.6875 C201.375 696.6875 201.375 696.6875 199.125 696.6875 C199.125 697.3475 199.125 698.0075 199.125 698.6875 C193.375 701.6875 193.375 701.6875 191.125 701.6875 C191.125 702.3475 191.125 703.0075 191.125 703.6875 C188.47761084 705.1481285 187.23051666 705.6875 184.125 705.6875 C183.795 706.6775 183.465 707.6675 183.125 708.6875 C181.47295544 709.38961894 179.80576231 710.05721413 178.125 710.6875 C177.795 711.3475 177.465 712.0075 177.125 712.6875 C175.05859375 713.5390625 175.05859375 713.5390625 172.5625 714.3125 C171.73621094 714.57289063 170.90992188 714.83328125 170.05859375 715.1015625 C169.10146484 715.39160156 169.10146484 715.39160156 168.125 715.6875 C168.125 716.3475 168.125 717.0075 168.125 717.6875 C162.375 720.6875 162.375 720.6875 160.125 720.6875 C160.125 721.3475 160.125 722.0075 160.125 722.6875 C159.320625 722.97625 158.51625 723.265 157.6875 723.5625 C154.9923532 724.42012568 154.9923532 724.42012568 154.125 726.6875 C152.05859375 727.5390625 152.05859375 727.5390625 149.5625 728.3125 C148.73621094 728.57289063 147.90992188 728.83328125 147.05859375 729.1015625 C146.42050781 729.29492188 145.78242188 729.48828125 145.125 729.6875 C145.125 730.3475 145.125 731.0075 145.125 731.6875 C139.375 734.6875 139.375 734.6875 137.125 734.6875 C137.125 735.3475 137.125 736.0075 137.125 736.6875 C136.361875 736.955625 135.59875 737.22375 134.8125 737.5 C132.14568966 738.46358891 132.14568966 738.46358891 130.75 740.1875 C129.125 741.6875 129.125 741.6875 125.5 742.6875 C124.38625 743.0175 123.2725 743.3475 122.125 743.6875 C121.795 744.6775 121.465 745.6675 121.125 746.6875 C117.5625 747.875 117.5625 747.875 114.125 748.6875 C114.125 749.3475 114.125 750.0075 114.125 750.6875 C112.145 751.3475 110.165 752.0075 108.125 752.6875 C108.125 753.3475 108.125 754.0075 108.125 754.6875 C102.375 757.6875 102.375 757.6875 100.125 757.6875 C100.125 758.3475 100.125 759.0075 100.125 759.6875 C98.990625 760.14125 97.85625 760.595 96.6875 761.0625 C93.07778308 762.25845806 93.07778308 762.25845806 92.125 764.6875 C90.453125 765.65234375 90.453125 765.65234375 88.375 766.625 C85.89968628 767.80942431 83.60067318 769.00665545 81.25 770.4375 C79.125 771.6875 79.125 771.6875 77.125 771.6875 C77.125 772.3475 77.125 773.0075 77.125 773.6875 C71.375 776.6875 71.375 776.6875 69.125 776.6875 C69.125 777.3475 69.125 778.0075 69.125 778.6875 C68.60550781 778.94144531 68.08601563 779.19539062 67.55078125 779.45703125 C64.37449435 781.02462571 61.2781247 782.59429366 58.25 784.4375 C56.125 785.6875 56.125 785.6875 54.125 785.6875 C54.125 786.3475 54.125 787.0075 54.125 787.6875 C48.375 790.6875 48.375 790.6875 46.125 790.6875 C46.125 791.3475 46.125 792.0075 46.125 792.6875 C45.031875 793.120625 43.93875 793.55375 42.8125 794 C40.57366515 794.94668167 39.23355165 795.57894835 37.5 797.3125 C35.5838701 799.2286299 33.7508889 799.33265015 31.125 799.6875 C31.125 800.3475 31.125 801.0075 31.125 801.6875 C25.375 804.6875 25.375 804.6875 23.125 804.6875 C23.125 805.3475 23.125 806.0075 23.125 806.6875 C17.375 809.6875 17.375 809.6875 15.125 809.6875 C15.125 810.3475 15.125 811.0075 15.125 811.6875 C14.238125 812.120625 13.35125 812.55375 12.4375 813 C8.89974569 814.80225219 5.52297761 816.78557896 2.1875 818.9375 C-1.76239062 820.37382386 -5.06158602 819.05884116 -8.75 817.375 C-9.78125 816.818125 -10.8125 816.26125 -11.875 815.6875 C-13.92954579 814.70523144 -15.9846545 813.72434994 -18.04296875 812.75 C-19.99810152 811.61610637 -21.29519216 810.28888992 -22.875 808.6875 C-25.47415538 807.49722016 -25.47415538 807.49722016 -27.875 806.6875 C-27.875 806.0275 -27.875 805.3675 -27.875 804.6875 C-28.82375 804.378125 -29.7725 804.06875 -30.75 803.75 C-33.875 802.6875 -33.875 802.6875 -35.875 801.6875 C-35.875 801.0275 -35.875 800.3675 -35.875 799.6875 C-36.968125 799.419375 -38.06125 799.15125 -39.1875 798.875 C-42.77858295 797.71854956 -43.45352257 797.21425906 -45.875 794.6875 C-46.865 794.3575 -47.855 794.0275 -48.875 793.6875 C-51.895711 792.68059633 -52.80192038 791.94904141 -54.875 789.6875 C-56.97489652 788.51175289 -56.97489652 788.51175289 -58.875 787.6875 C-58.875 787.0275 -58.875 786.3675 -58.875 785.6875 C-59.473125 785.543125 -60.07125 785.39875 -60.6875 785.25 C-62.43650404 784.8002561 -64.16177023 784.25857659 -65.875 783.6875 C-65.875 783.0275 -65.875 782.3675 -65.875 781.6875 C-66.48988281 781.50574219 -67.10476563 781.32398438 -67.73828125 781.13671875 C-68.95064453 780.75966797 -68.95064453 780.75966797 -70.1875 780.375 C-71.38826172 780.00955078 -71.38826172 780.00955078 -72.61328125 779.63671875 C-75.00412936 778.63330581 -76.12598011 777.55577125 -77.875 775.6875 C-80.47415538 774.49722016 -80.47415538 774.49722016 -82.875 773.6875 C-82.875 773.0275 -82.875 772.3675 -82.875 771.6875 C-83.968125 771.419375 -85.06125 771.15125 -86.1875 770.875 C-89.72709598 769.73513011 -90.5282819 769.2475561 -92.875 766.6875 C-95.47415538 765.49722016 -95.47415538 765.49722016 -97.875 764.6875 C-97.875 764.0275 -97.875 763.3675 -97.875 762.6875 C-98.82375 762.378125 -99.7725 762.06875 -100.75 761.75 C-103.875 760.6875 -103.875 760.6875 -105.875 759.6875 C-105.875 759.0275 -105.875 758.3675 -105.875 757.6875 C-106.968125 757.419375 -108.06125 757.15125 -109.1875 756.875 C-112.72709598 755.73513011 -113.5282819 755.2475561 -115.875 752.6875 C-118.47415538 751.49722016 -118.47415538 751.49722016 -120.875 750.6875 C-120.875 750.0275 -120.875 749.3675 -120.875 748.6875 C-121.82375 748.378125 -122.7725 748.06875 -123.75 747.75 C-126.875 746.6875 -126.875 746.6875 -128.875 745.6875 C-128.875 745.0275 -128.875 744.3675 -128.875 743.6875 C-133.33 742.2025 -133.33 742.2025 -137.875 740.6875 C-137.875 740.0275 -137.875 739.3675 -137.875 738.6875 C-139.855 738.0275 -141.835 737.3675 -143.875 736.6875 C-143.875 736.0275 -143.875 735.3675 -143.875 734.6875 C-148.33 733.2025 -148.33 733.2025 -152.875 731.6875 C-152.875 731.0275 -152.875 730.3675 -152.875 729.6875 C-153.82375 729.378125 -154.7725 729.06875 -155.75 728.75 C-158.875 727.6875 -158.875 727.6875 -160.875 726.6875 C-160.875 726.0275 -160.875 725.3675 -160.875 724.6875 C-161.865 724.460625 -162.855 724.23375 -163.875 724 C-168.29856351 722.74258624 -172.29923951 720.58525915 -175.875 717.6875 C-175.875 717.0275 -175.875 716.3675 -175.875 715.6875 C-176.83212891 715.39746094 -176.83212891 715.39746094 -177.80859375 715.1015625 C-179.04802734 714.71097656 -179.04802734 714.71097656 -180.3125 714.3125 C-181.13621094 714.05726563 -181.95992187 713.80203125 -182.80859375 713.5390625 C-184.875 712.6875 -184.875 712.6875 -185.875 710.6875 C-188.18465848 709.63397157 -190.5179774 708.63030904 -192.875 707.6875 C-192.875 707.0275 -192.875 706.3675 -192.875 705.6875 C-194.009375 705.39875 -195.14375 705.11 -196.3125 704.8125 C-197.488125 704.44125 -198.66375 704.07 -199.875 703.6875 C-200.205 703.0275 -200.535 702.3675 -200.875 701.6875 C-203.18465848 700.63397157 -205.5179774 699.63030904 -207.875 698.6875 C-207.875 698.0275 -207.875 697.3675 -207.875 696.6875 C-208.74125 696.44 -209.6075 696.1925 -210.5 695.9375 C-214.06428941 694.61739281 -216.75636802 692.83589092 -219.875 690.6875 C-220.865 690.3575 -221.855 690.0275 -222.875 689.6875 C-222.875 689.0275 -222.875 688.3675 -222.875 687.6875 C-223.82375 687.378125 -224.7725 687.06875 -225.75 686.75 C-228.875 685.6875 -228.875 685.6875 -230.875 684.6875 C-230.875 684.0275 -230.875 683.3675 -230.875 682.6875 C-235.33 681.2025 -235.33 681.2025 -239.875 679.6875 C-239.875 679.0275 -239.875 678.3675 -239.875 677.6875 C-241.855 677.0275 -243.835 676.3675 -245.875 675.6875 C-245.875 675.0275 -245.875 674.3675 -245.875 673.6875 C-250.33 672.2025 -250.33 672.2025 -254.875 670.6875 C-254.875 670.0275 -254.875 669.3675 -254.875 668.6875 C-255.82375 668.378125 -256.7725 668.06875 -257.75 667.75 C-260.875 666.6875 -260.875 666.6875 -262.875 665.6875 C-262.875 665.0275 -262.875 664.3675 -262.875 663.6875 C-264.009375 663.419375 -265.14375 663.15125 -266.3125 662.875 C-268.0759375 662.2871875 -268.0759375 662.2871875 -269.875 661.6875 C-270.37 660.2025 -270.37 660.2025 -270.875 658.6875 C-271.65875 658.543125 -272.4425 658.39875 -273.25 658.25 C-275.875 657.6875 -275.875 657.6875 -277.875 656.6875 C-277.875 656.0275 -277.875 655.3675 -277.875 654.6875 C-282.33 653.2025 -282.33 653.2025 -286.875 651.6875 C-286.875 651.0275 -286.875 650.3675 -286.875 649.6875 C-287.82375 649.378125 -288.7725 649.06875 -289.75 648.75 C-292.875 647.6875 -292.875 647.6875 -294.875 646.6875 C-294.875 646.0275 -294.875 645.3675 -294.875 644.6875 C-296.009375 644.39875 -297.14375 644.11 -298.3125 643.8125 C-299.488125 643.44125 -300.66375 643.07 -301.875 642.6875 C-302.205 642.0275 -302.535 641.3675 -302.875 640.6875 C-305.18465848 639.63397157 -307.5179774 638.63030904 -309.875 637.6875 C-309.875 637.0275 -309.875 636.3675 -309.875 635.6875 C-310.82375 635.378125 -311.7725 635.06875 -312.75 634.75 C-315.875 633.6875 -315.875 633.6875 -317.875 632.6875 C-317.875 632.0275 -317.875 631.3675 -317.875 630.6875 C-320.185 630.0275 -322.495 629.3675 -324.875 628.6875 C-324.875 628.0275 -324.875 627.3675 -324.875 626.6875 C-325.48988281 626.50574219 -326.10476563 626.32398438 -326.73828125 626.13671875 C-327.95064453 625.75966797 -327.95064453 625.75966797 -329.1875 625.375 C-329.98800781 625.13136719 -330.78851563 624.88773438 -331.61328125 624.63671875 C-334.00063328 623.63477308 -335.13162338 622.55611919 -336.875 620.6875 C-338.53572849 620.00617549 -340.202767 619.34007873 -341.875 618.6875 C-343.21775169 617.70018258 -344.55232273 616.70155257 -345.875 615.6875 C-346.865 615.3575 -347.855 615.0275 -348.875 614.6875 C-349.60958527 535.11867328 -350.05252022 455.54916956 -350.40410233 375.97779465 C-350.43174235 369.72503668 -350.45977065 363.47228052 -350.48791289 357.2195248 C-350.54764924 343.94071719 -350.60576546 330.6619035 -350.66219711 317.38308144 C-350.6811209 312.93245562 -350.70047372 308.48183205 -350.72024918 304.03120995 C-350.86227626 271.91650355 -350.89866473 239.80250666 -350.875 207.6875 C-349.905625 207.23375 -348.93625 206.78 -347.9375 206.3125 C-344.80420418 205.02963779 -344.80420418 205.02963779 -343.875 202.6875 C-341.5609378 201.95674352 -339.22671131 201.28611742 -336.875 200.6875 C-336.875 200.0275 -336.875 199.3675 -336.875 198.6875 C-331.125 195.6875 -331.125 195.6875 -328.875 195.6875 C-328.875 195.0275 -328.875 194.3675 -328.875 193.6875 C-327.740625 193.23375 -326.60625 192.78 -325.4375 192.3125 C-321.82778308 191.11654194 -321.82778308 191.11654194 -320.875 188.6875 C-318.5609378 187.95674352 -316.22671131 187.28611742 -313.875 186.6875 C-313.875 186.0275 -313.875 185.3675 -313.875 184.6875 C-308.125 181.6875 -308.125 181.6875 -305.875 181.6875 C-305.875 181.0275 -305.875 180.3675 -305.875 179.6875 C-300.125 176.6875 -300.125 176.6875 -297.875 176.6875 C-297.875 176.0275 -297.875 175.3675 -297.875 174.6875 C-296.6065625 174.06875 -296.6065625 174.06875 -295.3125 173.4375 C-292.85185684 172.18480894 -290.49832349 170.89812139 -288.125 169.5 C-284.875 167.6875 -284.875 167.6875 -282.875 167.6875 C-282.875 167.0275 -282.875 166.3675 -282.875 165.6875 C-277.125 162.6875 -277.125 162.6875 -274.875 162.6875 C-274.875 162.0275 -274.875 161.3675 -274.875 160.6875 C-272.3203125 158.9609375 -272.3203125 158.9609375 -269 157.0625 C-267.90945313 156.43085938 -266.81890625 155.79921875 -265.6953125 155.1484375 C-262.875 153.6875 -262.875 153.6875 -260.875 153.6875 C-260.875 153.0275 -260.875 152.3675 -260.875 151.6875 C-255.25 148.6875 -255.25 148.6875 -251.875 148.6875 C-251.875 148.0275 -251.875 147.3675 -251.875 146.6875 C-250.905625 146.23375 -249.93625 145.78 -248.9375 145.3125 C-245.80420418 144.02963779 -245.80420418 144.02963779 -244.875 141.6875 C-242.5609378 140.95674352 -240.22671131 140.28611742 -237.875 139.6875 C-237.875 139.0275 -237.875 138.3675 -237.875 137.6875 C-232.125 134.6875 -232.125 134.6875 -229.875 134.6875 C-229.875 134.0275 -229.875 133.3675 -229.875 132.6875 C-228.740625 132.23375 -227.60625 131.78 -226.4375 131.3125 C-222.82778308 130.11654194 -222.82778308 130.11654194 -221.875 127.6875 C-219.5609378 126.95674352 -217.22671131 126.28611742 -214.875 125.6875 C-214.875 125.0275 -214.875 124.3675 -214.875 123.6875 C-209.125 120.6875 -209.125 120.6875 -206.875 120.6875 C-206.875 120.0275 -206.875 119.3675 -206.875 118.6875 C-205.1734375 118.006875 -205.1734375 118.006875 -203.4375 117.3125 C-199.82778308 116.11654194 -199.82778308 116.11654194 -198.875 113.6875 C-197.203125 112.72265625 -197.203125 112.72265625 -195.125 111.75 C-192.64968628 110.56557569 -190.35067318 109.36834455 -188 107.9375 C-185.875 106.6875 -185.875 106.6875 -183.875 106.6875 C-183.875 106.0275 -183.875 105.3675 -183.875 104.6875 C-178.125 101.6875 -178.125 101.6875 -175.875 101.6875 C-175.875 101.0275 -175.875 100.3675 -175.875 99.6875 C-170.125 96.6875 -170.125 96.6875 -167.875 96.6875 C-167.875 96.0275 -167.875 95.3675 -167.875 94.6875 C-166.1734375 94.2853125 -166.1734375 94.2853125 -164.4375 93.875 C-163.261875 93.483125 -162.08625 93.09125 -160.875 92.6875 C-160.545 91.6975 -160.215 90.7075 -159.875 89.6875 C-156.3125 88.5 -156.3125 88.5 -152.875 87.6875 C-152.875 87.0275 -152.875 86.3675 -152.875 85.6875 C-151.92238281 85.14480469 -150.96976563 84.60210937 -149.98828125 84.04296875 C-148.72133756 83.32034161 -147.45441141 82.59768373 -146.1875 81.875 C-145.56166016 81.51857422 -144.93582031 81.16214844 -144.29101562 80.79492188 C-141.52632923 79.21716891 -138.77906168 77.62887103 -136.0625 75.96875 C-133.96684305 74.74129379 -132.24961791 74.12724406 -129.875 73.6875 C-129.875 73.0275 -129.875 72.3675 -129.875 71.6875 C-128.905625 71.23375 -127.93625 70.78 -126.9375 70.3125 C-123.80420418 69.02963779 -123.80420418 69.02963779 -122.875 66.6875 C-121.203125 65.72265625 -121.203125 65.72265625 -119.125 64.75 C-116.64968628 63.56557569 -114.35067318 62.36834455 -112 60.9375 C-109.875 59.6875 -109.875 59.6875 -107.875 59.6875 C-107.875 59.0275 -107.875 58.3675 -107.875 57.6875 C-106.1734375 57.006875 -106.1734375 57.006875 -104.4375 56.3125 C-100.82778308 55.11654194 -100.82778308 55.11654194 -99.875 52.6875 C-97.80859375 51.8359375 -97.80859375 51.8359375 -95.3125 51.0625 C-94.48621094 50.80210938 -93.65992188 50.54171875 -92.80859375 50.2734375 C-92.17050781 50.08007812 -91.53242188 49.88671875 -90.875 49.6875 C-90.875 49.0275 -90.875 48.3675 -90.875 47.6875 C-88.895 47.0275 -86.915 46.3675 -84.875 45.6875 C-84.875 45.0275 -84.875 44.3675 -84.875 43.6875 C-83.740625 43.23375 -82.60625 42.78 -81.4375 42.3125 C-77.82778308 41.11654194 -77.82778308 41.11654194 -76.875 38.6875 C-74.80859375 37.8359375 -74.80859375 37.8359375 -72.3125 37.0625 C-71.48621094 36.80210938 -70.65992188 36.54171875 -69.80859375 36.2734375 C-69.17050781 36.08007812 -68.53242188 35.88671875 -67.875 35.6875 C-67.875 35.0275 -67.875 34.3675 -67.875 33.6875 C-65.895 33.0275 -63.915 32.3675 -61.875 31.6875 C-61.875 31.0275 -61.875 30.3675 -61.875 29.6875 C-56.125 26.6875 -56.125 26.6875 -53.875 26.6875 C-53.875 26.0275 -53.875 25.3675 -53.875 24.6875 C-48.25 21.6875 -48.25 21.6875 -44.875 21.6875 C-44.875 21.0275 -44.875 20.3675 -44.875 19.6875 C-43.4209375 19.2853125 -43.4209375 19.2853125 -41.9375 18.875 C-40.926875 18.483125 -39.91625 18.09125 -38.875 17.6875 C-38.545 16.6975 -38.215 15.7075 -37.875 14.6875 C-34.3125 13.5 -34.3125 13.5 -30.875 12.6875 C-30.875 12.0275 -30.875 11.3675 -30.875 10.6875 C-25.125 7.6875 -25.125 7.6875 -22.875 7.6875 C-22.875 7.0275 -22.875 6.3675 -22.875 5.6875 C-21.740625 5.23375 -20.60625 4.78 -19.4375 4.3125 C-15.82778308 3.11654194 -15.82778308 3.11654194 -14.875 0.6875 C-8.85361975 -2.4389859 -6.05191311 -2.7628299 0 0 Z " fill="#00D2B8" transform="translate(350.875,2.3125)"/>
<path d="M0 0 C3.40983514 1.84131097 6.77284639 3.7432509 10.125 5.6875 C10.125 6.3475 10.125 7.0075 10.125 7.6875 C10.76308594 7.88085938 11.40117187 8.07421875 12.05859375 8.2734375 C13.29802734 8.66402344 13.29802734 8.66402344 14.5625 9.0625 C15.38621094 9.31773438 16.20992188 9.57296875 17.05859375 9.8359375 C19.125 10.6875 19.125 10.6875 20.125 12.6875 C22.43465848 13.74102843 24.7679774 14.74469096 27.125 15.6875 C27.125 16.3475 27.125 17.0075 27.125 17.6875 C28.1975 17.955625 29.27 18.22375 30.375 18.5 C33.77327099 19.57611915 35.45553682 20.47828909 38.125 22.6875 C39.44336295 23.38330267 40.77291086 24.05974433 42.125 24.6875 C42.125 25.3475 42.125 26.0075 42.125 26.6875 C42.76308594 26.88085938 43.40117187 27.07421875 44.05859375 27.2734375 C45.29802734 27.66402344 45.29802734 27.66402344 46.5625 28.0625 C47.38621094 28.31773438 48.20992188 28.57296875 49.05859375 28.8359375 C51.125 29.6875 51.125 29.6875 52.125 31.6875 C53.76863134 32.40909424 55.43550386 33.08101421 57.125 33.6875 C57.125 34.3475 57.125 35.0075 57.125 35.6875 C58.04732422 35.96013672 58.04732422 35.96013672 58.98828125 36.23828125 C59.79652344 36.48964844 60.60476563 36.74101563 61.4375 37 C62.23800781 37.24363281 63.03851563 37.48726562 63.86328125 37.73828125 C66.25412936 38.74169419 67.37598011 39.81922875 69.125 41.6875 C71.72415538 42.87777984 71.72415538 42.87777984 74.125 43.6875 C74.125 44.3475 74.125 45.0075 74.125 45.6875 C76.105 46.3475 78.085 47.0075 80.125 47.6875 C80.125 48.3475 80.125 49.0075 80.125 49.6875 C83.095 50.6775 86.065 51.6675 89.125 52.6875 C89.125 53.3475 89.125 54.0075 89.125 54.6875 C90.07375 54.996875 91.0225 55.30625 92 55.625 C95.125 56.6875 95.125 56.6875 97.125 57.6875 C97.125 58.3475 97.125 59.0075 97.125 59.6875 C98.115 59.914375 99.105 60.14125 100.125 60.375 C104.54856351 61.63241376 108.54923951 63.78974085 112.125 66.6875 C112.125 67.3475 112.125 68.0075 112.125 68.6875 C112.76308594 68.88085938 113.40117187 69.07421875 114.05859375 69.2734375 C115.29802734 69.66402344 115.29802734 69.66402344 116.5625 70.0625 C117.38621094 70.31773438 118.20992188 70.57296875 119.05859375 70.8359375 C121.125 71.6875 121.125 71.6875 122.125 73.6875 C124.43465848 74.74102843 126.7679774 75.74469096 129.125 76.6875 C129.125 77.3475 129.125 78.0075 129.125 78.6875 C130.259375 78.97625 131.39375 79.265 132.5625 79.5625 C133.738125 79.93375 134.91375 80.305 136.125 80.6875 C136.455 81.3475 136.785 82.0075 137.125 82.6875 C139.43465848 83.74102843 141.7679774 84.74469096 144.125 85.6875 C144.125 86.3475 144.125 87.0075 144.125 87.6875 C145.07375 87.996875 146.0225 88.30625 147 88.625 C150.125 89.6875 150.125 89.6875 152.125 90.6875 C152.125 91.3475 152.125 92.0075 152.125 92.6875 C153.259375 92.97625 154.39375 93.265 155.5625 93.5625 C156.738125 93.93375 157.91375 94.305 159.125 94.6875 C159.455 95.3475 159.785 96.0075 160.125 96.6875 C162.08799854 97.52815632 164.08570871 98.15267348 166.1171875 98.80859375 C168.33768291 99.7806005 169.48475303 100.93108823 171.125 102.6875 C173.22489652 103.86324711 173.22489652 103.86324711 175.125 104.6875 C175.125 105.3475 175.125 106.0075 175.125 106.6875 C175.65996094 106.79320313 176.19492187 106.89890625 176.74609375 107.0078125 C179.75619212 107.86784061 182.38599969 109.1669571 185.1875 110.5625 C186.23035156 111.07554688 187.27320313 111.58859375 188.34765625 112.1171875 C190.77553998 113.48991501 192.24821736 114.69200521 194.125 116.6875 C196.72415538 117.87777984 196.72415538 117.87777984 199.125 118.6875 C199.125 119.3475 199.125 120.0075 199.125 120.6875 C200.07375 120.996875 201.0225 121.30625 202 121.625 C205.125 122.6875 205.125 122.6875 207.125 123.6875 C207.125 124.3475 207.125 125.0075 207.125 125.6875 C209.435 126.3475 211.745 127.0075 214.125 127.6875 C214.125 128.3475 214.125 129.0075 214.125 129.6875 C215.07375 129.996875 216.0225 130.30625 217 130.625 C220.125 131.6875 220.125 131.6875 222.125 132.6875 C222.125 133.3475 222.125 134.0075 222.125 134.6875 C223.8265625 135.0896875 223.8265625 135.0896875 225.5625 135.5 C226.738125 135.891875 227.91375 136.28375 229.125 136.6875 C229.455 137.6775 229.785 138.6675 230.125 139.6875 C230.84042969 139.79191406 231.55585937 139.89632812 232.29296875 140.00390625 C235.43663677 140.76272267 237.67715773 141.95243706 240.4375 143.625 C241.32050781 144.14964844 242.20351563 144.67429688 243.11328125 145.21484375 C243.77714844 145.70082031 244.44101562 146.18679687 245.125 146.6875 C245.125 147.3475 245.125 148.0075 245.125 148.6875 C245.9603125 148.873125 245.9603125 148.873125 246.8125 149.0625 C249.34614364 149.74726855 251.70421032 150.67883763 254.125 151.6875 C254.125 152.3475 254.125 153.0075 254.125 153.6875 C255.7646875 154.0896875 255.7646875 154.0896875 257.4375 154.5 C260.97709598 155.63986989 261.7782819 156.1274439 264.125 158.6875 C266.72415538 159.87777984 266.72415538 159.87777984 269.125 160.6875 C269.125 161.3475 269.125 162.0075 269.125 162.6875 C270.07375 162.996875 271.0225 163.30625 272 163.625 C275.125 164.6875 275.125 164.6875 277.125 165.6875 C277.125 166.3475 277.125 167.0075 277.125 167.6875 C277.970625 167.935 278.81625 168.1825 279.6875 168.4375 C283.51576088 169.82959487 286.63008005 171.60399003 290.125 173.6875 C290.785 174.0175 291.445 174.3475 292.125 174.6875 C292.125 175.3475 292.125 176.0075 292.125 176.6875 C292.76308594 176.88085938 293.40117188 177.07421875 294.05859375 177.2734375 C294.88488281 177.53382813 295.71117187 177.79421875 296.5625 178.0625 C297.38621094 178.31773437 298.20992187 178.57296875 299.05859375 178.8359375 C301.125 179.6875 301.125 179.6875 302.125 181.6875 C304.43465848 182.74102843 306.7679774 183.74469096 309.125 184.6875 C309.125 185.3475 309.125 186.0075 309.125 186.6875 C311.105 187.3475 313.085 188.0075 315.125 188.6875 C315.125 189.3475 315.125 190.0075 315.125 190.6875 C319.58 192.1725 319.58 192.1725 324.125 193.6875 C324.125 194.3475 324.125 195.0075 324.125 195.6875 C325.07375 195.996875 326.0225 196.30625 327 196.625 C330.125 197.6875 330.125 197.6875 332.125 198.6875 C332.125 199.3475 332.125 200.0075 332.125 200.6875 C334.435 201.3475 336.745 202.0075 339.125 202.6875 C339.125 203.3475 339.125 204.0075 339.125 204.6875 C339.785 204.6875 340.445 204.6875 341.125 204.6875 C341.1871336 213.56770193 341.24815239 222.4479114 341.30859375 231.328125 C341.31344662 232.04056594 341.31829948 232.75300688 341.32329941 233.48703694 C341.45359833 252.6432393 341.57552534 271.79947072 341.68383789 290.95581055 C341.6942502 292.78964967 341.70466659 294.62348877 341.71508694 296.45732784 C341.75890368 304.17645261 341.80270236 311.89557743 341.84583855 319.61470604 C341.99464985 346.15893668 342.17362353 372.70280132 342.38339476 399.24661878 C342.51003102 415.27162908 342.63326725 431.29663766 342.73805237 447.32180786 C342.74483531 448.35893463 342.74483531 448.35893463 342.75175527 449.41701345 C342.79726951 456.39797354 342.84171929 463.37893983 342.88487082 470.35991492 C342.90642965 473.84333827 342.92824607 477.32675995 342.95022583 480.81018066 C342.95456586 481.49869801 342.95890589 482.18721536 342.96337744 482.89659686 C343.03428763 494.04776036 343.12624406 505.19865896 343.22583146 516.34959907 C343.3265144 527.67289616 343.40464077 538.99614125 343.46187055 550.3197574 C343.494017 556.54004472 343.53642315 562.75985509 343.60462952 568.97986031 C343.6673915 574.7247225 343.70251764 580.46906027 343.71551049 586.21424437 C343.72521745 588.30923057 343.74526378 590.40419779 343.7763232 592.49897623 C343.81699371 595.34223242 343.82090794 598.18320237 343.81529236 601.02668762 C343.8359781 601.85458583 343.85666384 602.68248404 343.87797642 603.53547007 C343.85046291 605.8343935 343.85046291 605.8343935 343.125 609.6875 C340.28498173 612.11942577 340.28498173 612.11942577 337.125 613.6875 C335.51625 614.55375 335.51625 614.55375 333.875 615.4375 C331.125 616.6875 331.125 616.6875 329.125 616.6875 C329.125 617.3475 329.125 618.0075 329.125 618.6875 C327.39973958 619.6640625 325.67447917 620.640625 323.94921875 621.6171875 C322.30517711 622.58178581 320.71099412 623.63017059 319.125 624.6875 C317.13700182 625.38914642 315.13801483 626.06122872 313.125 626.6875 C313.125 627.3475 313.125 628.0075 313.125 628.6875 C310.47761084 630.1481285 309.23051666 630.6875 306.125 630.6875 C305.795 631.6775 305.465 632.6675 305.125 633.6875 C303.47295544 634.38961894 301.80576231 635.05721413 300.125 635.6875 C299.795 636.3475 299.465 637.0075 299.125 637.6875 C297.05859375 638.5390625 297.05859375 638.5390625 294.5625 639.3125 C293.73621094 639.57289063 292.90992188 639.83328125 292.05859375 640.1015625 C291.10146484 640.39160156 291.10146484 640.39160156 290.125 640.6875 C290.125 641.3475 290.125 642.0075 290.125 642.6875 C288.145 643.3475 286.165 644.0075 284.125 644.6875 C284.125 645.3475 284.125 646.0075 284.125 646.6875 C282.990625 647.14125 281.85625 647.595 280.6875 648.0625 C277.07778308 649.25845806 277.07778308 649.25845806 276.125 651.6875 C274.05859375 652.5390625 274.05859375 652.5390625 271.5625 653.3125 C270.73621094 653.57289063 269.90992188 653.83328125 269.05859375 654.1015625 C268.10146484 654.39160156 268.10146484 654.39160156 267.125 654.6875 C267.125 655.3475 267.125 656.0075 267.125 656.6875 C264.5703125 658.4140625 264.5703125 658.4140625 261.25 660.3125 C260.15945313 660.94414063 259.06890625 661.57578125 257.9453125 662.2265625 C255.125 663.6875 255.125 663.6875 253.125 663.6875 C253.125 664.3475 253.125 665.0075 253.125 665.6875 C247.375 668.6875 247.375 668.6875 245.125 668.6875 C245.125 669.3475 245.125 670.0075 245.125 670.6875 C244.60550781 670.94144531 244.08601562 671.19539062 243.55078125 671.45703125 C240.37449435 673.02462571 237.2781247 674.59429366 234.25 676.4375 C232.125 677.6875 232.125 677.6875 230.125 677.6875 C230.125 678.3475 230.125 679.0075 230.125 679.6875 C224.375 682.6875 224.375 682.6875 222.125 682.6875 C222.125 683.3475 222.125 684.0075 222.125 684.6875 C216.375 687.6875 216.375 687.6875 214.125 687.6875 C214.125 688.3475 214.125 689.0075 214.125 689.6875 C211.815 690.3475 209.505 691.0075 207.125 691.6875 C207.125 692.3475 207.125 693.0075 207.125 693.6875 C201.375 696.6875 201.375 696.6875 199.125 696.6875 C199.125 697.3475 199.125 698.0075 199.125 698.6875 C193.375 701.6875 193.375 701.6875 191.125 701.6875 C191.125 702.3475 191.125 703.0075 191.125 703.6875 C188.47761084 705.1481285 187.23051666 705.6875 184.125 705.6875 C183.795 706.6775 183.465 707.6675 183.125 708.6875 C181.47295544 709.38961894 179.80576231 710.05721413 178.125 710.6875 C177.795 711.3475 177.465 712.0075 177.125 712.6875 C175.05859375 713.5390625 175.05859375 713.5390625 172.5625 714.3125 C171.73621094 714.57289063 170.90992188 714.83328125 170.05859375 715.1015625 C169.10146484 715.39160156 169.10146484 715.39160156 168.125 715.6875 C168.125 716.3475 168.125 717.0075 168.125 717.6875 C162.375 720.6875 162.375 720.6875 160.125 720.6875 C160.125 721.3475 160.125 722.0075 160.125 722.6875 C159.320625 722.97625 158.51625 723.265 157.6875 723.5625 C154.9923532 724.42012568 154.9923532 724.42012568 154.125 726.6875 C152.05859375 727.5390625 152.05859375 727.5390625 149.5625 728.3125 C148.73621094 728.57289063 147.90992188 728.83328125 147.05859375 729.1015625 C146.42050781 729.29492188 145.78242188 729.48828125 145.125 729.6875 C145.125 730.3475 145.125 731.0075 145.125 731.6875 C139.375 734.6875 139.375 734.6875 137.125 734.6875 C137.125 735.3475 137.125 736.0075 137.125 736.6875 C136.361875 736.955625 135.59875 737.22375 134.8125 737.5 C132.14568966 738.46358891 132.14568966 738.46358891 130.75 740.1875 C129.125 741.6875 129.125 741.6875 125.5 742.6875 C124.38625 743.0175 123.2725 743.3475 122.125 743.6875 C121.795 744.6775 121.465 745.6675 121.125 746.6875 C117.5625 747.875 117.5625 747.875 114.125 748.6875 C114.125 749.3475 114.125 750.0075 114.125 750.6875 C112.145 751.3475 110.165 752.0075 108.125 752.6875 C108.125 753.3475 108.125 754.0075 108.125 754.6875 C102.375 757.6875 102.375 757.6875 100.125 757.6875 C100.125 758.3475 100.125 759.0075 100.125 759.6875 C98.990625 760.14125 97.85625 760.595 96.6875 761.0625 C93.07778308 762.25845806 93.07778308 762.25845806 92.125 764.6875 C90.453125 765.65234375 90.453125 765.65234375 88.375 766.625 C85.89968628 767.80942431 83.60067318 769.00665545 81.25 770.4375 C79.125 771.6875 79.125 771.6875 77.125 771.6875 C77.125 772.3475 77.125 773.0075 77.125 773.6875 C71.375 776.6875 71.375 776.6875 69.125 776.6875 C69.125 777.3475 69.125 778.0075 69.125 778.6875 C68.60550781 778.94144531 68.08601563 779.19539062 67.55078125 779.45703125 C64.37449435 781.02462571 61.2781247 782.59429366 58.25 784.4375 C56.125 785.6875 56.125 785.6875 54.125 785.6875 C54.125 786.3475 54.125 787.0075 54.125 787.6875 C48.375 790.6875 48.375 790.6875 46.125 790.6875 C46.125 791.3475 46.125 792.0075 46.125 792.6875 C45.031875 793.120625 43.93875 793.55375 42.8125 794 C40.57366515 794.94668167 39.23355165 795.57894835 37.5 797.3125 C35.5838701 799.2286299 33.7508889 799.33265015 31.125 799.6875 C31.125 800.3475 31.125 801.0075 31.125 801.6875 C25.375 804.6875 25.375 804.6875 23.125 804.6875 C23.125 805.3475 23.125 806.0075 23.125 806.6875 C17.375 809.6875 17.375 809.6875 15.125 809.6875 C15.125 810.3475 15.125 811.0075 15.125 811.6875 C14.238125 812.120625 13.35125 812.55375 12.4375 813 C8.89974569 814.80225219 5.52297761 816.78557896 2.1875 818.9375 C-1.76239062 820.37382386 -5.06158602 819.05884116 -8.75 817.375 C-9.78125 816.818125 -10.8125 816.26125 -11.875 815.6875 C-13.92954579 814.70523144 -15.9846545 813.72434994 -18.04296875 812.75 C-19.99810152 811.61610637 -21.29519216 810.28888992 -22.875 808.6875 C-25.47415538 807.49722016 -25.47415538 807.49722016 -27.875 806.6875 C-27.875 806.0275 -27.875 805.3675 -27.875 804.6875 C-28.82375 804.378125 -29.7725 804.06875 -30.75 803.75 C-33.875 802.6875 -33.875 802.6875 -35.875 801.6875 C-35.875 801.0275 -35.875 800.3675 -35.875 799.6875 C-36.968125 799.419375 -38.06125 799.15125 -39.1875 798.875 C-42.77858295 797.71854956 -43.45352257 797.21425906 -45.875 794.6875 C-46.865 794.3575 -47.855 794.0275 -48.875 793.6875 C-51.895711 792.68059633 -52.80192038 791.94904141 -54.875 789.6875 C-56.97489652 788.51175289 -56.97489652 788.51175289 -58.875 787.6875 C-58.875 787.0275 -58.875 786.3675 -58.875 785.6875 C-59.473125 785.543125 -60.07125 785.39875 -60.6875 785.25 C-62.43650404 784.8002561 -64.16177023 784.25857659 -65.875 783.6875 C-65.875 783.0275 -65.875 782.3675 -65.875 781.6875 C-66.48988281 781.50574219 -67.10476563 781.32398438 -67.73828125 781.13671875 C-68.95064453 780.75966797 -68.95064453 780.75966797 -70.1875 780.375 C-71.38826172 780.00955078 -71.38826172 780.00955078 -72.61328125 779.63671875 C-75.00412936 778.63330581 -76.12598011 777.55577125 -77.875 775.6875 C-80.47415538 774.49722016 -80.47415538 774.49722016 -82.875 773.6875 C-82.875 773.0275 -82.875 772.3675 -82.875 771.6875 C-83.968125 771.419375 -85.06125 771.15125 -86.1875 770.875 C-89.72709598 769.73513011 -90.5282819 769.2475561 -92.875 766.6875 C-95.47415538 765.49722016 -95.47415538 765.49722016 -97.875 764.6875 C-97.875 764.0275 -97.875 763.3675 -97.875 762.6875 C-98.82375 762.378125 -99.7725 762.06875 -100.75 761.75 C-103.875 760.6875 -103.875 760.6875 -105.875 759.6875 C-105.875 759.0275 -105.875 758.3675 -105.875 757.6875 C-106.968125 757.419375 -108.06125 757.15125 -109.1875 756.875 C-112.72709598 755.73513011 -113.5282819 755.2475561 -115.875 752.6875 C-118.47415538 751.49722016 -118.47415538 751.49722016 -120.875 750.6875 C-120.875 750.0275 -120.875 749.3675 -120.875 748.6875 C-121.82375 748.378125 -122.7725 748.06875 -123.75 747.75 C-126.875 746.6875 -126.875 746.6875 -128.875 745.6875 C-128.875 745.0275 -128.875 744.3675 -128.875 743.6875 C-133.33 742.2025 -133.33 742.2025 -137.875 740.6875 C-137.875 740.0275 -137.875 739.3675 -137.875 738.6875 C-139.855 738.0275 -141.835 737.3675 -143.875 736.6875 C-143.875 736.0275 -143.875 735.3675 -143.875 734.6875 C-148.33 733.2025 -148.33 733.2025 -152.875 731.6875 C-152.875 731.0275 -152.875 730.3675 -152.875 729.6875 C-153.82375 729.378125 -154.7725 729.06875 -155.75 728.75 C-158.875 727.6875 -158.875 727.6875 -160.875 726.6875 C-160.875 726.0275 -160.875 725.3675 -160.875 724.6875 C-161.865 724.460625 -162.855 724.23375 -163.875 724 C-168.29856351 722.74258624 -172.29923951 720.58525915 -175.875 717.6875 C-175.875 717.0275 -175.875 716.3675 -175.875 715.6875 C-176.83212891 715.39746094 -176.83212891 715.39746094 -177.80859375 715.1015625 C-179.04802734 714.71097656 -179.04802734 714.71097656 -180.3125 714.3125 C-181.13621094 714.05726563 -181.95992187 713.80203125 -182.80859375 713.5390625 C-184.875 712.6875 -184.875 712.6875 -185.875 710.6875 C-188.18465848 709.63397157 -190.5179774 708.63030904 -192.875 707.6875 C-192.875 707.0275 -192.875 706.3675 -192.875 705.6875 C-194.009375 705.39875 -195.14375 705.11 -196.3125 704.8125 C-197.488125 704.44125 -198.66375 704.07 -199.875 703.6875 C-200.205 703.0275 -200.535 702.3675 -200.875 701.6875 C-203.18465848 700.63397157 -205.5179774 699.63030904 -207.875 698.6875 C-207.875 698.0275 -207.875 697.3675 -207.875 696.6875 C-208.74125 696.44 -209.6075 696.1925 -210.5 695.9375 C-214.06428941 694.61739281 -216.75636802 692.83589092 -219.875 690.6875 C-220.865 690.3575 -221.855 690.0275 -222.875 689.6875 C-222.875 689.0275 -222.875 688.3675 -222.875 687.6875 C-223.82375 687.378125 -224.7725 687.06875 -225.75 686.75 C-228.875 685.6875 -228.875 685.6875 -230.875 684.6875 C-230.875 684.0275 -230.875 683.3675 -230.875 682.6875 C-235.33 681.2025 -235.33 681.2025 -239.875 679.6875 C-239.875 679.0275 -239.875 678.3675 -239.875 677.6875 C-241.855 677.0275 -243.835 676.3675 -245.875 675.6875 C-245.875 675.0275 -245.875 674.3675 -245.875 673.6875 C-250.33 672.2025 -250.33 672.2025 -254.875 670.6875 C-254.875 670.0275 -254.875 669.3675 -254.875 668.6875 C-255.82375 668.378125 -256.7725 668.06875 -257.75 667.75 C-260.875 666.6875 -260.875 666.6875 -262.875 665.6875 C-262.875 665.0275 -262.875 664.3675 -262.875 663.6875 C-264.009375 663.419375 -265.14375 663.15125 -266.3125 662.875 C-268.0759375 662.2871875 -268.0759375 662.2871875 -269.875 661.6875 C-270.37 660.2025 -270.37 660.2025 -270.875 658.6875 C-271.65875 658.543125 -272.4425 658.39875 -273.25 658.25 C-275.875 657.6875 -275.875 657.6875 -277.875 656.6875 C-277.875 656.0275 -277.875 655.3675 -277.875 654.6875 C-282.33 653.2025 -282.33 653.2025 -286.875 651.6875 C-286.875 651.0275 -286.875 650.3675 -286.875 649.6875 C-287.82375 649.378125 -288.7725 649.06875 -289.75 648.75 C-292.875 647.6875 -292.875 647.6875 -294.875 646.6875 C-294.875 646.0275 -294.875 645.3675 -294.875 644.6875 C-296.009375 644.39875 -297.14375 644.11 -298.3125 643.8125 C-299.488125 643.44125 -300.66375 643.07 -301.875 642.6875 C-302.205 642.0275 -302.535 641.3675 -302.875 640.6875 C-305.18465848 639.63397157 -307.5179774 638.63030904 -309.875 637.6875 C-309.875 637.0275 -309.875 636.3675 -309.875 635.6875 C-310.82375 635.378125 -311.7725 635.06875 -312.75 634.75 C-315.875 633.6875 -315.875 633.6875 -317.875 632.6875 C-317.875 632.0275 -317.875 631.3675 -317.875 630.6875 C-320.185 630.0275 -322.495 629.3675 -324.875 628.6875 C-324.875 628.0275 -324.875 627.3675 -324.875 626.6875 C-325.48988281 626.50574219 -326.10476563 626.32398438 -326.73828125 626.13671875 C-327.95064453 625.75966797 -327.95064453 625.75966797 -329.1875 625.375 C-329.98800781 625.13136719 -330.78851563 624.88773438 -331.61328125 624.63671875 C-334.00063328 623.63477308 -335.13162338 622.55611919 -336.875 620.6875 C-338.53572849 620.00617549 -340.202767 619.34007873 -341.875 618.6875 C-343.21775169 617.70018258 -344.55232273 616.70155257 -345.875 615.6875 C-346.865 615.3575 -347.855 615.0275 -348.875 614.6875 C-349.60958527 535.11867328 -350.05252022 455.54916956 -350.40410233 375.97779465 C-350.43174235 369.72503668 -350.45977065 363.47228052 -350.48791289 357.2195248 C-350.54764924 343.94071719 -350.60576546 330.6619035 -350.66219711 317.38308144 C-350.6811209 312.93245562 -350.70047372 308.48183205 -350.72024918 304.03120995 C-350.86227626 271.91650355 -350.89866473 239.80250666 -350.875 207.6875 C-349.905625 207.23375 -348.93625 206.78 -347.9375 206.3125 C-344.80420418 205.02963779 -344.80420418 205.02963779 -343.875 202.6875 C-341.5609378 201.95674352 -339.22671131 201.28611742 -336.875 200.6875 C-336.875 200.0275 -336.875 199.3675 -336.875 198.6875 C-331.125 195.6875 -331.125 195.6875 -328.875 195.6875 C-328.875 195.0275 -328.875 194.3675 -328.875 193.6875 C-327.740625 193.23375 -326.60625 192.78 -325.4375 192.3125 C-321.82778308 191.11654194 -321.82778308 191.11654194 -320.875 188.6875 C-318.5609378 187.95674352 -316.22671131 187.28611742 -313.875 186.6875 C-313.875 186.0275 -313.875 185.3675 -313.875 184.6875 C-308.125 181.6875 -308.125 181.6875 -305.875 181.6875 C-305.875 181.0275 -305.875 180.3675 -305.875 179.6875 C-300.125 176.6875 -300.125 176.6875 -297.875 176.6875 C-297.875 176.0275 -297.875 175.3675 -297.875 174.6875 C-296.6065625 174.06875 -296.6065625 174.06875 -295.3125 173.4375 C-292.85185684 172.18480894 -290.49832349 170.89812139 -288.125 169.5 C-284.875 167.6875 -284.875 167.6875 -282.875 167.6875 C-282.875 167.0275 -282.875 166.3675 -282.875 165.6875 C-277.125 162.6875 -277.125 162.6875 -274.875 162.6875 C-274.875 162.0275 -274.875 161.3675 -274.875 160.6875 C-272.3203125 158.9609375 -272.3203125 158.9609375 -269 157.0625 C-267.90945313 156.43085938 -266.81890625 155.79921875 -265.6953125 155.1484375 C-262.875 153.6875 -262.875 153.6875 -260.875 153.6875 C-260.875 153.0275 -260.875 152.3675 -260.875 151.6875 C-255.25 148.6875 -255.25 148.6875 -251.875 148.6875 C-251.875 148.0275 -251.875 147.3675 -251.875 146.6875 C-250.905625 146.23375 -249.93625 145.78 -248.9375 145.3125 C-245.80420418 144.02963779 -245.80420418 144.02963779 -244.875 141.6875 C-242.5609378 140.95674352 -240.22671131 140.28611742 -237.875 139.6875 C-237.875 139.0275 -237.875 138.3675 -237.875 137.6875 C-232.125 134.6875 -232.125 134.6875 -229.875 134.6875 C-229.875 134.0275 -229.875 133.3675 -229.875 132.6875 C-228.740625 132.23375 -227.60625 131.78 -226.4375 131.3125 C-222.82778308 130.11654194 -222.82778308 130.11654194 -221.875 127.6875 C-219.5609378 126.95674352 -217.22671131 126.28611742 -214.875 125.6875 C-214.875 125.0275 -214.875 124.3675 -214.875 123.6875 C-209.125 120.6875 -209.125 120.6875 -206.875 120.6875 C-206.875 120.0275 -206.875 119.3675 -206.875 118.6875 C-205.1734375 118.006875 -205.1734375 118.006875 -203.4375 117.3125 C-199.82778308 116.11654194 -199.82778308 116.11654194 -198.875 113.6875 C-197.203125 112.72265625 -197.203125 112.72265625 -195.125 111.75 C-192.64968628 110.56557569 -190.35067318 109.36834455 -188 107.9375 C-185.875 106.6875 -185.875 106.6875 -183.875 106.6875 C-183.875 106.0275 -183.875 105.3675 -183.875 104.6875 C-178.125 101.6875 -178.125 101.6875 -175.875 101.6875 C-175.875 101.0275 -175.875 100.3675 -175.875 99.6875 C-170.125 96.6875 -170.125 96.6875 -167.875 96.6875 C-167.875 96.0275 -167.875 95.3675 -167.875 94.6875 C-166.1734375 94.2853125 -166.1734375 94.2853125 -164.4375 93.875 C-163.261875 93.483125 -162.08625 93.09125 -160.875 92.6875 C-160.545 91.6975 -160.215 90.7075 -159.875 89.6875 C-156.3125 88.5 -156.3125 88.5 -152.875 87.6875 C-152.875 87.0275 -152.875 86.3675 -152.875 85.6875 C-151.92238281 85.14480469 -150.96976563 84.60210937 -149.98828125 84.04296875 C-148.72133756 83.32034161 -147.45441141 82.59768373 -146.1875 81.875 C-145.56166016 81.51857422 -144.93582031 81.16214844 -144.29101562 80.79492188 C-141.52632923 79.21716891 -138.77906168 77.62887103 -136.0625 75.96875 C-133.96684305 74.74129379 -132.24961791 74.12724406 -129.875 73.6875 C-129.875 73.0275 -129.875 72.3675 -129.875 71.6875 C-128.905625 71.23375 -127.93625 70.78 -126.9375 70.3125 C-123.80420418 69.02963779 -123.80420418 69.02963779 -122.875 66.6875 C-121.203125 65.72265625 -121.203125 65.72265625 -119.125 64.75 C-116.64968628 63.56557569 -114.35067318 62.36834455 -112 60.9375 C-109.875 59.6875 -109.875 59.6875 -107.875 59.6875 C-107.875 59.0275 -107.875 58.3675 -107.875 57.6875 C-106.1734375 57.006875 -106.1734375 57.006875 -104.4375 56.3125 C-100.82778308 55.11654194 -100.82778308 55.11654194 -99.875 52.6875 C-97.80859375 51.8359375 -97.80859375 51.8359375 -95.3125 51.0625 C-94.48621094 50.80210938 -93.65992188 50.54171875 -92.80859375 50.2734375 C-92.17050781 50.08007812 -91.53242188 49.88671875 -90.875 49.6875 C-90.875 49.0275 -90.875 48.3675 -90.875 47.6875 C-88.895 47.0275 -86.915 46.3675 -84.875 45.6875 C-84.875 45.0275 -84.875 44.3675 -84.875 43.6875 C-83.740625 43.23375 -82.60625 42.78 -81.4375 42.3125 C-77.82778308 41.11654194 -77.82778308 41.11654194 -76.875 38.6875 C-74.80859375 37.8359375 -74.80859375 37.8359375 -72.3125 37.0625 C-71.48621094 36.80210938 -70.65992188 36.54171875 -69.80859375 36.2734375 C-69.17050781 36.08007812 -68.53242188 35.88671875 -67.875 35.6875 C-67.875 35.0275 -67.875 34.3675 -67.875 33.6875 C-65.895 33.0275 -63.915 32.3675 -61.875 31.6875 C-61.875 31.0275 -61.875 30.3675 -61.875 29.6875 C-56.125 26.6875 -56.125 26.6875 -53.875 26.6875 C-53.875 26.0275 -53.875 25.3675 -53.875 24.6875 C-48.25 21.6875 -48.25 21.6875 -44.875 21.6875 C-44.875 21.0275 -44.875 20.3675 -44.875 19.6875 C-43.4209375 19.2853125 -43.4209375 19.2853125 -41.9375 18.875 C-40.926875 18.483125 -39.91625 18.09125 -38.875 17.6875 C-38.545 16.6975 -38.215 15.7075 -37.875 14.6875 C-34.3125 13.5 -34.3125 13.5 -30.875 12.6875 C-30.875 12.0275 -30.875 11.3675 -30.875 10.6875 C-25.125 7.6875 -25.125 7.6875 -22.875 7.6875 C-22.875 7.0275 -22.875 6.3675 -22.875 5.6875 C-21.740625 5.23375 -20.60625 4.78 -19.4375 4.3125 C-15.82778308 3.11654194 -15.82778308 3.11654194 -14.875 0.6875 C-8.85361975 -2.4389859 -6.05191311 -2.7628299 0 0 Z M-12.0625 94.0625 C-12.73667969 94.52398437 -13.41085937 94.98546875 -14.10546875 95.4609375 C-14.68941406 95.86570312 -15.27335938 96.27046875 -15.875 96.6875 C-16.535 97.0175 -17.195 97.3475 -17.875 97.6875 C-17.875 98.3475 -17.875 99.0075 -17.875 99.6875 C-18.73996094 99.94273438 -19.60492188 100.19796875 -20.49609375 100.4609375 C-24.00078895 101.73316212 -26.79312677 103.31695593 -29.9375 105.3125 C-31.08453131 106.0340197 -32.23166976 106.75536909 -33.37890625 107.4765625 C-33.95914551 107.84426758 -34.53938477 108.21197266 -35.13720703 108.59082031 C-37.86809063 110.3142158 -40.62232753 111.99919422 -43.375 113.6875 C-46.6612398 115.70919155 -49.94686558 117.73184081 -53.23046875 119.7578125 C-58.09751817 122.75906454 -62.96690795 125.75374546 -67.875 128.6875 C-68.65617188 129.15671875 -69.43734375 129.6259375 -70.2421875 130.109375 C-71.68208923 130.9724615 -73.12280783 131.83421139 -74.56738281 132.68945312 C-76.38238523 133.76537172 -78.1914399 134.85079469 -80 135.9375 C-81.11632812 136.60265625 -82.23265625 137.2678125 -83.3828125 137.953125 C-84.61644531 138.81164062 -84.61644531 138.81164062 -85.875 139.6875 C-85.875 140.3475 -85.875 141.0075 -85.875 141.6875 C-87.08542969 142.0278125 -87.08542969 142.0278125 -88.3203125 142.375 C-92.7790188 144.02129156 -96.67193294 146.26830768 -100.75 148.6875 C-101.53375 149.13867188 -102.3175 149.58984375 -103.125 150.0546875 C-103.86492187 150.49039063 -104.60484375 150.92609375 -105.3671875 151.375 C-106.04120605 151.77074219 -106.71522461 152.16648438 -107.40966797 152.57421875 C-107.89322754 152.94160156 -108.37678711 153.30898437 -108.875 153.6875 C-108.875 154.3475 -108.875 155.0075 -108.875 155.6875 C-109.70386719 155.91824219 -110.53273437 156.14898437 -111.38671875 156.38671875 C-115.55406134 157.9407222 -118.97409791 160.08480788 -122.6875 162.5 C-127.82271204 165.78634711 -132.94815977 168.95106633 -138.37109375 171.75 C-140.05916996 172.62046785 -140.05916996 172.62046785 -140.875 174.6875 C-142.72451796 175.61225898 -144.57685239 176.53172601 -146.44140625 177.42578125 C-149.13782398 178.82376348 -151.64103713 180.4074818 -154.1875 182.0625 C-157.86400294 184.44918009 -161.56203674 186.64029201 -165.4375 188.6875 C-169.0427378 190.61233035 -172.37480657 192.66999919 -175.6875 195.0625 C-180.11464842 198.24976666 -184.73565201 200.96784329 -189.48486328 203.6340332 C-197.60389131 208.1989265 -205.48536205 213.1410558 -213.3125 218.1875 C-219.68941522 222.27212173 -226.2754689 225.97827449 -232.875 229.6875 C-232.875 230.3475 -232.875 231.0075 -232.875 231.6875 C-233.72835937 231.935 -234.58171875 232.1825 -235.4609375 232.4375 C-239.17237613 233.79637913 -242.1694976 235.56596217 -245.5 237.6875 C-252.38707464 242.05413008 -252.38707464 242.05413008 -255.875 243.6875 C-255.875 244.3475 -255.875 245.0075 -255.875 245.6875 C-256.679375 245.89375 -257.48375 246.1 -258.3125 246.3125 C-259.488125 246.76625 -260.66375 247.22 -261.875 247.6875 C-262.62745687 247.93361338 -263.37991375 248.17972675 -264.15517235 248.43329811 C-267.20203063 249.83516358 -268.80208021 251.01970095 -270.875 253.6875 C-272.26822017 260.30635505 -272.02203355 266.88956678 -271.91259766 273.62646484 C-271.91169537 275.70129076 -271.91474814 277.77612159 -271.92144775 279.85093689 C-271.92832613 285.51194569 -271.87925062 291.17127471 -271.82047701 296.83193159 C-271.76750514 302.84585625 -271.76554034 308.85980971 -271.75765991 314.87393188 C-271.73476646 326.36798304 -271.66528505 337.86127812 -271.57971323 349.35501444 C-271.48732274 362.07664565 -271.44794122 374.79824031 -271.41289186 387.52013731 C-271.35044243 409.6950548 -271.22461815 431.86887724 -271.04624605 454.04315519 C-270.92616994 469.03599446 -270.85706524 484.0274404 -270.85733223 499.0207653 C-270.85667584 506.34967298 -270.83267919 513.67843522 -270.80069339 521.00726807 C-270.78084471 525.84280023 -270.77302022 530.677658 -270.79506302 535.51319504 C-270.81510514 539.92811509 -270.80367662 544.34176583 -270.7667737 548.75656652 C-270.75926854 550.35306453 -270.76377714 551.94967165 -270.78126097 553.54609156 C-271.26717504 561.52292126 -271.26717504 561.52292126 -268.34370804 568.4978447 C-266.28177497 569.82528047 -266.28177497 569.82528047 -262.875 570.6875 C-261.6684375 571.05875 -261.6684375 571.05875 -260.4375 571.4375 C-259.921875 571.52 -259.40625 571.6025 -258.875 571.6875 C-258.875 572.3475 -258.875 573.0075 -258.875 573.6875 C-254.6112719 576.04660353 -254.6112719 576.04660353 -249.875 576.6875 C-249.545 577.6775 -249.215 578.6675 -248.875 579.6875 C-246.91375312 580.76151615 -244.90415769 581.74807514 -242.875 582.6875 C-241.6191815 583.40659939 -240.36910695 584.13582348 -239.125 584.875 C-236.20408603 586.8498561 -236.20408603 586.8498561 -233.875 586.6875 C-233.875 587.3475 -233.875 588.0075 -233.875 588.6875 C-233.029375 589.1 -232.18375 589.5125 -231.3125 589.9375 C-228.85185684 591.19019106 -226.49832349 592.47687861 -224.125 593.875 C-221.20408603 595.8498561 -221.20408603 595.8498561 -218.875 595.6875 C-218.875 596.3475 -218.875 597.0075 -218.875 597.6875 C-216.75267021 598.85926518 -214.62742209 600.02504785 -212.5 601.1875 C-211.59507812 601.68830078 -211.59507812 601.68830078 -210.671875 602.19921875 C-207.46085223 604.07523938 -207.46085223 604.07523938 -203.875 604.6875 C-203.875 605.3475 -203.875 606.0075 -203.875 606.6875 C-200.07072508 608.8888866 -200.07072508 608.8888866 -195.875 609.6875 C-195.875 610.3475 -195.875 611.0075 -195.875 611.6875 C-191.42 613.1725 -191.42 613.1725 -186.875 614.6875 C-186.875 615.3475 -186.875 616.0075 -186.875 616.6875 C-181.98929181 619.53206788 -177.35432789 622.14204854 -171.875 623.6875 C-171.875 624.3475 -171.875 625.0075 -171.875 625.6875 C-168.07072508 627.8888866 -168.07072508 627.8888866 -163.875 628.6875 C-163.875 629.3475 -163.875 630.0075 -163.875 630.6875 C-163.35550781 630.94144531 -162.83601563 631.19539062 -162.30078125 631.45703125 C-159.12449435 633.02462571 -156.0281247 634.59429366 -153 636.4375 C-150.99858616 637.85650671 -150.99858616 637.85650671 -148.875 637.6875 C-148.875 638.3475 -148.875 639.0075 -148.875 639.6875 C-146.41929825 641.02588733 -143.96070084 642.35836232 -141.5 643.6875 C-140.80132812 644.0690625 -140.10265625 644.450625 -139.3828125 644.84375 C-135.8321054 646.94474744 -135.8321054 646.94474744 -131.875 647.6875 C-131.875 648.3475 -131.875 649.0075 -131.875 649.6875 C-130.12818707 650.67234108 -128.3774149 651.65016187 -126.625 652.625 C-125.65046875 653.17027344 -124.6759375 653.71554687 -123.671875 654.27734375 C-121.33889591 655.45360835 -119.42149238 656.20851691 -116.875 656.6875 C-116.875 657.3475 -116.875 658.0075 -116.875 658.6875 C-111.98929181 661.53206788 -107.35432789 664.14204854 -101.875 665.6875 C-101.875 666.3475 -101.875 667.0075 -101.875 667.6875 C-98.07072508 669.8888866 -98.07072508 669.8888866 -93.875 670.6875 C-93.875 671.3475 -93.875 672.0075 -93.875 672.6875 C-92.699375 673.265 -91.52375 673.8425 -90.3125 674.4375 C-87.47922843 675.8465871 -84.72570692 677.3307675 -82 678.9375 C-79.18110419 680.85036779 -79.18110419 680.85036779 -76.875 680.6875 C-76.875 681.3475 -76.875 682.0075 -76.875 682.6875 C-74.22761084 684.1481285 -72.98051666 684.6875 -69.875 684.6875 C-69.875 685.3475 -69.875 686.0075 -69.875 686.6875 C-66.07072508 688.8888866 -66.07072508 688.8888866 -61.875 689.6875 C-61.875 690.3475 -61.875 691.0075 -61.875 691.6875 C-60.12818707 692.67234108 -58.3774149 693.65016187 -56.625 694.625 C-55.65046875 695.17027344 -54.6759375 695.71554687 -53.671875 696.27734375 C-51.33889591 697.45360835 -49.42149238 698.20851691 -46.875 698.6875 C-46.875 699.3475 -46.875 700.0075 -46.875 700.6875 C-45.12818707 701.67234108 -43.3774149 702.65016187 -41.625 703.625 C-40.65046875 704.17027344 -39.6759375 704.71554687 -38.671875 705.27734375 C-36.33889591 706.45360835 -34.42149238 707.20851691 -31.875 707.6875 C-31.875 708.3475 -31.875 709.0075 -31.875 709.6875 C-30.58586513 710.35904933 -29.29359796 711.02458859 -28 711.6875 C-27.28070313 712.05875 -26.56140625 712.43 -25.8203125 712.8125 C-23.92651023 713.82423746 -23.92651023 713.82423746 -21.875 713.6875 C-21.875 714.3475 -21.875 715.0075 -21.875 715.6875 C-19.565 716.3475 -17.255 717.0075 -14.875 717.6875 C-14.875 718.3475 -14.875 719.0075 -14.875 719.6875 C-11.07072508 721.8888866 -11.07072508 721.8888866 -6.875 722.6875 C-6.875 723.3475 -6.875 724.0075 -6.875 724.6875 C-4.1576539 725.57359112 -2.67265138 725.97674025 0.125 725.6875 C2.81539559 724.17878545 5.16522205 722.42134606 7.61328125 720.546875 C10.94169389 718.08291789 14.37496155 716.42362891 18.125 714.6875 C18.125 714.0275 18.125 713.3675 18.125 712.6875 C18.929375 712.48125 19.73375 712.275 20.5625 712.0625 C24.44244736 710.56497646 27.40104556 708.57374518 30.80078125 706.21875 C34.1060463 704.04116362 37.54930937 702.37782648 41.125 700.6875 C41.125 700.0275 41.125 699.3675 41.125 698.6875 C41.8159375 698.44 42.506875 698.1925 43.21875 697.9375 C46.59214914 696.48657564 49.52636711 694.65672464 52.625 692.6875 C56.38651923 690.2970018 59.92281097 688.19276174 64.125 686.6875 C64.125 686.0275 64.125 685.3675 64.125 684.6875 C65.17107422 684.30851563 65.17107422 684.30851563 66.23828125 683.921875 C69.48717354 682.53263283 72.32102884 680.81764509 75.3125 678.9375 C76.47236482 678.21307485 77.63252371 677.48912034 78.79296875 676.765625 C79.89253906 676.07984375 80.99210937 675.3940625 82.125 674.6875 C83.78880714 673.6827495 85.45520674 672.68227045 87.125 671.6875 C95.63221388 666.59689298 104.05923048 661.39665464 112.375 656 C116.81377376 653.12159572 121.29835338 650.4205062 125.953125 647.90625 C129.3405088 646.00541593 132.5753129 643.87632798 135.83984375 641.7734375 C139.90390336 639.19292878 144.01229973 636.68949877 148.125 634.1875 C153.95129197 630.64030579 159.74174158 627.04881444 165.484375 623.3671875 C172.29753567 619.03337228 179.19521954 614.83189058 186.125 610.6875 C194.63221388 605.59689298 203.05923048 600.39665464 211.375 595 C215.80238056 592.12898385 220.27458678 589.43269063 224.91796875 586.92578125 C231.02410167 583.49986243 236.84419952 579.56833175 242.625 575.625 C246.78695105 572.82541422 251.11834886 570.43225784 255.546875 568.08203125 C256.39765625 567.62183594 257.2484375 567.16164063 258.125 566.6875 C258.99063379 566.3157836 259.85626759 565.94406719 260.74813271 565.56108665 C263.46388212 563.84164917 263.46388212 563.84164917 263.74303246 560.43688393 C263.76539427 559.06329465 263.75983199 557.68909153 263.73300171 556.31558228 C263.73798082 555.55699925 263.74295992 554.79841622 263.74808991 554.01684582 C263.75871087 551.46069205 263.73345119 548.90613392 263.70849609 546.35009766 C263.70870164 544.5147703 263.7110946 542.67944209 263.71550751 540.84412003 C263.72119671 535.81948062 263.69565218 530.79541325 263.66480017 525.77088308 C263.6372608 520.43672248 263.63795773 515.10256152 263.63528442 509.76834106 C263.62559603 499.49337286 263.5892933 489.21866712 263.54364121 478.94380248 C263.49247165 467.18950221 263.46912202 455.4351964 263.44645929 443.68081284 C263.31811703 379.3487818 263.00811102 315.01404487 262.125 250.6875 C261.35542969 250.39101562 260.58585938 250.09453125 259.79296875 249.7890625 C257.125 248.6875 257.125 248.6875 254.4375 247.0625 C252.28688894 245.51714154 252.28688894 245.51714154 250.125 245.6875 C250.125 245.0275 250.125 244.3675 250.125 243.6875 C247.66929825 242.34911267 245.21070084 241.01663768 242.75 239.6875 C242.05132813 239.3059375 241.35265625 238.924375 240.6328125 238.53125 C237.0821054 236.43025256 237.0821054 236.43025256 233.125 235.6875 C233.125 235.0275 233.125 234.3675 233.125 233.6875 C231.00267021 232.51573482 228.87742209 231.34995215 226.75 230.1875 C226.14671875 229.85363281 225.5434375 229.51976562 224.921875 229.17578125 C221.71085223 227.29976062 221.71085223 227.29976062 218.125 226.6875 C218.125 226.0275 218.125 225.3675 218.125 224.6875 C213.23929181 221.84293212 208.60432789 219.23295146 203.125 217.6875 C203.125 217.0275 203.125 216.3675 203.125 215.6875 C202.63773438 215.419375 202.15046875 215.15125 201.6484375 214.875 C197.90659116 212.80677948 194.17633973 210.72365191 190.48046875 208.57421875 C189.85414551 208.21134766 189.22782227 207.84847656 188.58251953 207.47460938 C187.32752619 206.7463834 186.07455865 206.01465408 184.82373047 205.27929688 C181.68175597 203.319736 181.68175597 203.319736 178.125 202.6875 C178.125 202.0275 178.125 201.3675 178.125 200.6875 C177.02800781 200.07261719 175.93101562 199.45773438 174.80078125 198.82421875 C173.34633265 198.00785083 171.89190677 197.19144244 170.4375 196.375 C169.71626953 195.97087891 168.99503906 195.56675781 168.25195312 195.15039062 C165.21151345 193.44274642 162.19563885 191.73125605 159.23046875 189.89453125 C157.24030308 188.52171606 157.24030308 188.52171606 155.125 188.6875 C155.125 188.0275 155.125 187.3675 155.125 186.6875 C152.815 186.0275 150.505 185.3675 148.125 184.6875 C148.125 184.0275 148.125 183.3675 148.125 182.6875 C144.32072508 180.4861134 144.32072508 180.4861134 140.125 179.6875 C140.125 179.0275 140.125 178.3675 140.125 177.6875 C137.47761084 176.2268715 136.23051666 175.6875 133.125 175.6875 C133.125 175.0275 133.125 174.3675 133.125 173.6875 C131.83586513 173.01595067 130.54359796 172.35041141 129.25 171.6875 C128.17105469 171.130625 128.17105469 171.130625 127.0703125 170.5625 C125.17651023 169.55076254 125.17651023 169.55076254 123.125 169.6875 C123.125 169.0275 123.125 168.3675 123.125 167.6875 C122.60550781 167.43355469 122.08601563 167.17960937 121.55078125 166.91796875 C118.37449435 165.35037429 115.2781247 163.78070634 112.25 161.9375 C110.24858616 160.51849329 110.24858616 160.51849329 108.125 160.6875 C108.125 160.0275 108.125 159.3675 108.125 158.6875 C106.00267021 157.51573482 103.87742209 156.34995215 101.75 155.1875 C101.14671875 154.85363281 100.5434375 154.51976562 99.921875 154.17578125 C96.71085223 152.29976062 96.71085223 152.29976062 93.125 151.6875 C93.125 151.0275 93.125 150.3675 93.125 149.6875 C89.32072508 147.4861134 89.32072508 147.4861134 85.125 146.6875 C85.125 146.0275 85.125 145.3675 85.125 144.6875 C82.47761084 143.2268715 81.23051666 142.6875 78.125 142.6875 C78.125 142.0275 78.125 141.3675 78.125 140.6875 C76.83586513 140.01595067 75.54359796 139.35041141 74.25 138.6875 C73.53070313 138.31625 72.81140625 137.945 72.0703125 137.5625 C70.17651023 136.55076254 70.17651023 136.55076254 68.125 136.6875 C68.125 136.0275 68.125 135.3675 68.125 134.6875 C67.60550781 134.43355469 67.08601563 134.17960937 66.55078125 133.91796875 C63.37449435 132.35037429 60.2781247 130.78070634 57.25 128.9375 C55.24858616 127.51849329 55.24858616 127.51849329 53.125 127.6875 C53.125 127.0275 53.125 126.3675 53.125 125.6875 C52.60550781 125.43355469 52.08601563 125.17960937 51.55078125 124.91796875 C48.37449435 123.35037429 45.2781247 121.78070634 42.25 119.9375 C40.24858616 118.51849329 40.24858616 118.51849329 38.125 118.6875 C38.125 118.0275 38.125 117.3675 38.125 116.6875 C37.60550781 116.43355469 37.08601563 116.17960937 36.55078125 115.91796875 C33.37449435 114.35037429 30.2781247 112.78070634 27.25 110.9375 C25.24858616 109.51849329 25.24858616 109.51849329 23.125 109.6875 C23.125 109.0275 23.125 108.3675 23.125 107.6875 C20.66929825 106.34911267 18.21070084 105.01663768 15.75 103.6875 C15.05132812 103.3059375 14.35265625 102.924375 13.6328125 102.53125 C10.0821054 100.43025256 10.0821054 100.43025256 6.125 99.6875 C6.125 99.0275 6.125 98.3675 6.125 97.6875 C4.73422699 96.86636823 3.33711107 96.05597505 1.9375 95.25 C1.16019531 94.79753906 0.38289063 94.34507813 -0.41796875 93.87890625 C-5.07957426 91.6185093 -7.71608896 91.01917157 -12.0625 94.0625 Z " fill="#000000" transform="translate(350.875,2.3125)"/>
<path d="M0 0 C3.77071576 0.46238483 6.54881275 1.66274175 9.8125 3.5625 C10.60269531 4.01753906 11.39289063 4.47257812 12.20703125 4.94140625 C12.79871094 5.29074219 13.39039063 5.64007813 14 6 C14 6.66 14 7.32 14 8 C14.763125 8.20625 15.52625 8.4125 16.3125 8.625 C21.49898594 10.55894391 26.19033084 13.2785146 31 16 C31 16.66 31 17.32 31 18 C31.886875 18.268125 32.77375 18.53625 33.6875 18.8125 C36.78995619 19.92470128 39.22647138 21.24829771 42 23 C43.32608822 23.68096422 44.65686601 24.35330586 46 25 C46 25.66 46 26.32 46 27 C46.9075 27.268125 47.815 27.53625 48.75 27.8125 C51.77470911 28.91768218 53.49835774 30.0632447 56 32 C57.64797236 32.71162443 59.31165408 33.39031953 61 34 C61 34.66 61 35.32 61 36 C61.9075 36.268125 62.815 36.53625 63.75 36.8125 C66.77470911 37.91768218 68.49835774 39.0632447 71 41 C72.64797236 41.71162443 74.31165408 42.39031953 76 43 C76 43.66 76 44.32 76 45 C76.9075 45.28875 77.815 45.5775 78.75 45.875 C81.32202908 46.76531776 83.61346766 47.71494413 86 49 C86 49.66 86 50.32 86 51 C86.78375 51.144375 87.5675 51.28875 88.375 51.4375 C91 52 91 52 93 53 C93 53.66 93 54.32 93 55 C93.94875 55.309375 94.8975 55.61875 95.875 55.9375 C99 57 99 57 101 58 C101 58.66 101 59.32 101 60 C102.2065625 60.3403125 102.2065625 60.3403125 103.4375 60.6875 C107.91285739 62.33631588 111.88721318 64.60544412 116 67 C116 67.66 116 68.32 116 69 C116.886875 69.268125 117.77375 69.53625 118.6875 69.8125 C121.78995619 70.92470128 124.22647138 72.24829771 127 74 C128.32608822 74.68096422 129.65686601 75.35330586 131 76 C131 76.66 131 77.32 131 78 C131.9075 78.28875 132.815 78.5775 133.75 78.875 C136.32202908 79.76531776 138.61346766 80.71494413 141 82 C141 82.66 141 83.32 141 84 C141.78375 84.144375 142.5675 84.28875 143.375 84.4375 C146 85 146 85 148 86 C148 86.66 148 87.32 148 88 C148.94875 88.309375 149.8975 88.61875 150.875 88.9375 C154 90 154 90 156 91 C156 91.66 156 92.32 156 93 C158.31 93.66 160.62 94.32 163 95 C163 95.66 163 96.32 163 97 C163.825 97.226875 164.65 97.45375 165.5 97.6875 C168.99347923 98.99755471 171.72489626 100.60566275 174.83203125 102.625 C178.456082 104.92349705 182.23149619 106.95000372 186 109 C186 109.66 186 110.32 186 111 C186.78375 111.20625 187.5675 111.4125 188.375 111.625 C192.38680325 113.14671847 195.74681395 115.15432971 199.38671875 117.40234375 C203.18899549 119.72690457 207.08904964 121.86503676 211 124 C211 124.66 211 125.32 211 126 C211.804375 126.226875 212.60875 126.45375 213.4375 126.6875 C217.91285739 128.33631588 221.88721318 130.60544412 226 133 C226 133.66 226 134.32 226 135 C227.2065625 135.3403125 227.2065625 135.3403125 228.4375 135.6875 C232.91285739 137.33631588 236.88721318 139.60544412 241 142 C241 142.66 241 143.32 241 144 C241.763125 144.20625 242.52625 144.4125 243.3125 144.625 C248.49898594 146.55894391 253.19033084 149.2785146 258 152 C258 152.66 258 153.32 258 154 C258.94875 154.28875 259.8975 154.5775 260.875 154.875 C264 156 264 156 266 158 C268.06874034 158.6425235 268.06874034 158.6425235 270 159 C270.19105209 172.91639396 270.35256929 186.83307825 270.5 200.75 C270.51187725 201.86999264 270.5237545 202.98998528 270.53599167 204.14391708 C271.13588864 261.6987608 271.08393553 319.25520233 271.0625 376.8125 C271.06207577 377.98489668 271.06165154 379.15729336 271.06121445 380.36521721 C271.04997737 410.91015235 271.02961038 441.45507726 271 472 C269.68 472.66 268.36 473.32 267 474 C267 473.01 267 472.02 267 471 C267.99 471 268.98 471 270 471 C269.85702995 443.70831788 269.71096761 416.41665277 269.5625 389.125 C269.55422865 387.60358367 269.55422865 387.60358367 269.5457902 386.05143166 C269.23517006 328.95047373 268.89045194 271.85001904 268.4375 214.75 C268.43195052 214.0497788 268.42640103 213.34955759 268.42068338 212.62811756 C268.28422175 195.41871396 268.14433958 178.20933941 268 161 C266.94039062 161.6496875 265.88078125 162.299375 264.7890625 162.96875 C263.40118225 163.81273123 262.01315371 164.65646864 260.625 165.5 C259.92632813 165.92925781 259.22765625 166.35851562 258.5078125 166.80078125 C253.2265625 170 253.2265625 170 251 170 C251 170.66 251 171.32 251 172 C249.27281484 172.96189997 247.54315942 173.91936508 245.8125 174.875 C244.84957031 175.40867187 243.88664062 175.94234375 242.89453125 176.4921875 C240.30260482 177.8423678 237.73238902 178.97098329 235 180 C235 180.66 235 181.32 235 182 C231.535 182.99 231.535 182.99 228 184 C228 184.66 228 185.32 228 186 C227.41476562 186.30550781 226.82953125 186.61101562 226.2265625 186.92578125 C214.00105745 193.44237929 202.28051813 200.86077149 190.62109375 208.33203125 C183.05742664 213.14527396 175.38432655 217.77902428 167.6875 222.375 C162.31421538 225.58360855 156.98845071 228.86079999 151.6875 232.1875 C142.53298636 237.92637998 142.53298636 237.92637998 138.3125 240.5 C137.58675781 240.9434375 136.86101562 241.386875 136.11328125 241.84375 C133.80493521 243.10672676 131.45916429 244.0697382 129 245 C129 245.66 129 246.32 129 247 C128.33355469 247.35191406 127.66710937 247.70382812 126.98046875 248.06640625 C121.08144773 251.22630143 115.40765423 254.5981679 109.7890625 258.23046875 C107.04071704 259.97416692 104.25636333 261.62313535 101.4375 263.25 C90.3348183 269.66873786 79.41837059 276.41322828 68.62109375 283.33203125 C60.26212166 288.65137712 51.77190365 293.75892003 43.26391602 298.83520508 C39.87196411 300.86217384 36.51362059 302.9294444 33.1875 305.0625 C30 307 30 307 28 307 C28 307.66 28 308.32 28 309 C27.51273437 309.25652344 27.02546875 309.51304687 26.5234375 309.77734375 C25.81445312 310.16019531 25.10546875 310.54304688 24.375 310.9375 C23.55515625 311.37707031 22.7353125 311.81664062 21.890625 312.26953125 C19.6647303 313.6020601 17.71628758 314.93976921 15.671875 316.51171875 C12.19568871 319.11354467 9.01960414 321.297004 5 323 C0.63740121 322.30178033 -2.46639883 320.60332658 -6 318 C-6 317.34 -6 316.68 -6 316 C-6.598125 315.855625 -7.19625 315.71125 -7.8125 315.5625 C-9.56150404 315.1127561 -11.28677023 314.57107659 -13 314 C-13 313.34 -13 312.68 -13 312 C-13.9075 311.71125 -14.815 311.4225 -15.75 311.125 C-18.32202908 310.23468224 -20.61346766 309.28505587 -23 308 C-23 307.34 -23 306.68 -23 306 C-24.485 305.6596875 -24.485 305.6596875 -26 305.3125 C-30.42356351 304.05508624 -34.42423951 301.89775915 -38 299 C-38 298.34 -38 297.68 -38 297 C-39.2065625 296.6596875 -39.2065625 296.6596875 -40.4375 296.3125 C-44.91285739 294.66368412 -48.88721318 292.39455588 -53 290 C-53 289.34 -53 288.68 -53 288 C-54.423125 287.5359375 -54.423125 287.5359375 -55.875 287.0625 C-59 286 -59 286 -61 285 C-61 284.34 -61 283.68 -61 283 C-61.78375 282.855625 -62.5675 282.71125 -63.375 282.5625 C-66 282 -66 282 -68 281 C-68 280.34 -68 279.68 -68 279 C-69.2065625 278.6596875 -69.2065625 278.6596875 -70.4375 278.3125 C-74.91748645 276.66197868 -78.87015296 274.3705322 -83 272 C-83.66 271.67 -84.32 271.34 -85 271 C-85 270.34 -85 269.68 -85 269 C-86.423125 268.5359375 -86.423125 268.5359375 -87.875 268.0625 C-91 267 -91 267 -93 266 C-93 265.34 -93 264.68 -93 264 C-94.485 263.6596875 -94.485 263.6596875 -96 263.3125 C-100.42356351 262.05508624 -104.42423951 259.89775915 -108 257 C-108 256.34 -108 255.68 -108 255 C-108.886875 254.731875 -109.77375 254.46375 -110.6875 254.1875 C-113.78995619 253.07529872 -116.22647138 251.75170229 -119 250 C-120.32608822 249.31903578 -121.65686601 248.64669414 -123 248 C-123 247.34 -123 246.68 -123 246 C-123.763125 245.79375 -124.52625 245.5875 -125.3125 245.375 C-130.49898594 243.44105609 -135.19033084 240.7214854 -140 238 C-140 237.34 -140 236.68 -140 236 C-141.2684375 235.62875 -141.2684375 235.62875 -142.5625 235.25 C-146.39076088 233.85790513 -149.50508005 232.08350997 -153 230 C-153.66 229.67 -154.32 229.34 -155 229 C-155 228.34 -155 227.68 -155 227 C-156.2684375 226.62875 -156.2684375 226.62875 -157.5625 226.25 C-161.32605881 224.88143316 -164.58794157 223.05386041 -168 221 C-168.88042969 220.49726563 -169.76085937 219.99453125 -170.66796875 219.4765625 C-171.58191406 218.94804687 -172.49585938 218.41953125 -173.4375 217.875 C-174.30246094 217.37742187 -175.16742188 216.87984375 -176.05859375 216.3671875 C-176.69925781 215.91601562 -177.33992188 215.46484375 -178 215 C-178 214.34 -178 213.68 -178 213 C-178.886875 212.731875 -179.77375 212.46375 -180.6875 212.1875 C-183.80213806 211.07093164 -186.20743811 209.74535118 -189 208 C-190.99242489 206.9849911 -192.99074195 205.98126556 -195 205 C-195 204.34 -195 203.68 -195 203 C-197.97 202.01 -200.94 201.02 -204 200 C-204 199.34 -204 198.68 -204 198 C-206.97 197.01 -206.97 197.01 -210 196 C-210 195.34 -210 194.68 -210 194 C-211.299375 193.62875 -211.299375 193.62875 -212.625 193.25 C-215.5233207 192.17654789 -217.64457499 190.98815604 -220.14453125 189.21875 C-224.25109558 186.52138564 -228.66859579 184.31213748 -233 182 C-233 181.34 -233 180.68 -233 180 C-234.051875 179.7525 -235.10375 179.505 -236.1875 179.25 C-239.83265183 178.22641191 -242.12436067 176.47624498 -245 174 C-245.99 173.67 -246.98 173.34 -248 173 C-248 172.34 -248 171.68 -248 171 C-249.2065625 170.6596875 -249.2065625 170.6596875 -250.4375 170.3125 C-254.91285739 168.66368412 -258.88721318 166.39455588 -263 164 C-261.64625203 159.93875609 -259.73741172 159.39684351 -256.0625 157.3125 C-254.44021484 156.37857422 -254.44021484 156.37857422 -252.78515625 155.42578125 C-250 154 -250 154 -248 154 C-248 153.34 -248 152.68 -248 152 C-237.74609375 146.140625 -237.74609375 146.140625 -235.88232422 145.08007812 C-234.59755727 144.34287852 -233.31811155 143.59634655 -232.04345703 142.84179688 C-227.21064815 140 -227.21064815 140 -225 140 C-225 139.34 -225 138.68 -225 138 C-223.19921875 136.703125 -223.19921875 136.703125 -220.6875 135.25 C-219.77355469 134.71761719 -218.85960937 134.18523437 -217.91796875 133.63671875 C-215.13091894 132.07343379 -212.32094954 130.5635188 -209.5 129.0625 C-205.87993705 127.11323534 -202.52068291 125.03078341 -199.1875 122.625 C-194.76035158 119.43773334 -190.13934799 116.71965671 -185.39013672 114.0534668 C-177.29661892 109.50291653 -169.44057347 104.572779 -161.625 99.5625 C-144.2456367 88.46820659 -144.2456367 88.46820659 -136.25 84.625 C-133.13138912 83.28888299 -133.13138912 83.28888299 -131.640625 81.6015625 C-129.48490867 79.49717275 -127.12358197 78.2274909 -124.5 76.75 C-119.39248143 73.8376014 -114.45826012 70.74657442 -109.5703125 67.48046875 C-106.78878235 65.8783412 -104.06891916 64.91709683 -101 64 C-101 63.34 -101 62.68 -101 62 C-98.69140625 60.44921875 -98.69140625 60.44921875 -95.5625 58.6875 C-94.47324219 58.07132813 -93.38398438 57.45515625 -92.26171875 56.8203125 C-91.18535156 56.21960938 -90.10898438 55.61890625 -89 55 C-88.09894531 54.48179687 -87.19789063 53.96359375 -86.26953125 53.4296875 C-80.26267857 50 -80.26267857 50 -78 50 C-78 49.34 -78 48.68 -78 48 C-76.19889936 46.73345874 -74.32916625 45.56430481 -72.4375 44.4375 C-71.56544922 43.91349609 -71.56544922 43.91349609 -70.67578125 43.37890625 C-68.78769036 42.24605172 -66.8939001 41.12311008 -65 40 C-63.12582937 38.87803094 -61.25321655 37.75349205 -59.38061523 36.62890625 C-58.11892609 35.87153242 -56.856712 35.11503247 -55.59399414 34.359375 C-48.25910864 29.96806384 -40.98901613 25.47233419 -33.72265625 20.96875 C-28.27825638 17.60241477 -22.81819814 14.26531262 -17.3125 11 C-15.85263672 10.13375 -15.85263672 10.13375 -14.36328125 9.25 C-12 8 -12 8 -10 8 C-10 7.34 -10 6.68 -10 6 C-9.36191406 5.65066406 -8.72382813 5.30132812 -8.06640625 4.94140625 C-7.24011719 4.48636719 -6.41382813 4.03132813 -5.5625 3.5625 C-4.73878906 3.11003906 -3.91507812 2.65757813 -3.06640625 2.19140625 C-1.07691202 1.16337603 -1.07691202 1.16337603 0 0 Z " fill="#0083C0" transform="translate(343,94)"/>
<path d="M0 0 C3.53274955 1.39239506 6.92427182 2.90829772 10.3125 4.625 C11.63701172 5.29402344 11.63701172 5.29402344 12.98828125 5.9765625 C13.65214844 6.31429688 14.31601563 6.65203125 15 7 C15 7.66 15 8.32 15 9 C16.1446875 9.1546875 16.1446875 9.1546875 17.3125 9.3125 C20.33910105 10.08674678 20.85835426 10.85835426 23 13 C25.29190759 14.13822826 27.61712632 15.05584251 30 16 C30 16.66 30 17.32 30 18 C30.886875 18.268125 31.77375 18.53625 32.6875 18.8125 C35.82082667 19.93576805 38.17485677 21.26713598 41 23 C42.02738281 23.57878906 43.05476563 24.15757812 44.11328125 24.75390625 C45.16902344 25.35074219 46.22476563 25.94757813 47.3125 26.5625 C48.91544922 27.46162109 48.91544922 27.46162109 50.55078125 28.37890625 C51.35902344 28.91386719 52.16726562 29.44882812 53 30 C53 30.66 53 31.32 53 32 C54.98 32.66 56.96 33.32 59 34 C59 34.66 59 35.32 59 36 C60.11375 36.185625 60.11375 36.185625 61.25 36.375 C63.80141485 36.95486701 65.7267573 37.73708739 68 39 C68 39.66 68 40.32 68 41 C68.556875 41.15855469 69.11375 41.31710937 69.6875 41.48046875 C75.24466878 43.17953556 80.471578 45.26127557 85 49 C85 49.66 85 50.32 85 51 C85.639375 51.226875 86.27875 51.45375 86.9375 51.6875 C91.13676687 53.4871858 95.02886715 55.74905191 99 58 C100.68665678 58.93901618 102.37412281 59.87658068 104.0625 60.8125 C105.375 61.54166667 106.6875 62.27083333 108 63 C108 63.66 108 64.32 108 65 C108.804375 65.226875 109.60875 65.45375 110.4375 65.6875 C114.91285739 67.33631588 118.88721318 69.60544412 123 72 C123 72.66 123 73.32 123 74 C123.763125 74.20625 124.52625 74.4125 125.3125 74.625 C130.49898594 76.55894391 135.19033084 79.2785146 140 82 C140 82.66 140 83.32 140 84 C140.99 84.226875 141.98 84.45375 143 84.6875 C147.42356351 85.94491376 151.42423951 88.10224085 155 91 C155 91.66 155 92.32 155 93 C155.9075 93.268125 156.815 93.53625 157.75 93.8125 C160.77470911 94.91768218 162.49835774 96.0632447 165 98 C166.64797236 98.71162443 168.31165408 99.39031953 170 100 C170 100.66 170 101.32 170 102 C170.94875 102.309375 171.8975 102.61875 172.875 102.9375 C176 104 176 104 178 105 C178 105.66 178 106.32 178 107 C178.763125 107.20625 179.52625 107.4125 180.3125 107.625 C185.49898594 109.55894391 190.19033084 112.2785146 195 115 C195 115.66 195 116.32 195 117 C197.31 117.66 199.62 118.32 202 119 C202 119.66 202 120.32 202 121 C202.94875 121.309375 203.8975 121.61875 204.875 121.9375 C208 123 208 123 210 124 C210 124.66 210 125.32 210 126 C210.804375 126.226875 211.60875 126.45375 212.4375 126.6875 C216.91285739 128.33631588 220.88721318 130.60544412 225 133 C225 133.66 225 134.32 225 135 C225.9075 135.268125 226.815 135.53625 227.75 135.8125 C230.77470911 136.91768218 232.49835774 138.0632447 235 140 C236.64797236 140.71162443 238.31165408 141.39031953 240 142 C240 142.66 240 143.32 240 144 C240.9075 144.28875 241.815 144.5775 242.75 144.875 C245.32202908 145.76531776 247.61346766 146.71494413 250 148 C250 148.66 250 149.32 250 150 C250.598125 150.144375 251.19625 150.28875 251.8125 150.4375 C253.56150404 150.8872439 255.28677023 151.42892341 257 152 C257 152.66 257 153.32 257 154 C257.9075 154.28875 258.815 154.5775 259.75 154.875 C262.33098291 155.76841716 264.58842326 156.75227117 267 158 C267.13317774 184.81747988 267.263613 211.63497204 267.39115143 238.45247936 C267.45048542 250.91648656 267.51058911 263.38048899 267.57275391 275.84448242 C267.89337513 340.23016371 268.07854546 404.61349649 268 469 C266.68 469 265.36 469 264 469 C264 468.34 264 467.68 264 467 C263.05125 466.690625 262.1025 466.38125 261.125 466.0625 C258 465 258 465 256 464 C256 463.34 256 462.68 256 462 C253.69 461.34 251.38 460.68 249 460 C249 459.34 249 458.68 249 458 C248.0925 457.71125 247.185 457.4225 246.25 457.125 C243.67797092 456.23468224 241.38653234 455.28505587 239 454 C239 453.34 239 452.68 239 452 C237.515 451.6596875 237.515 451.6596875 236 451.3125 C231.57643649 450.05508624 227.57576049 447.89775915 224 445 C224 444.34 224 443.68 224 443 C222.515 442.6596875 222.515 442.6596875 221 442.3125 C216.57643649 441.05508624 212.57576049 438.89775915 209 436 C209 435.34 209 434.68 209 434 C207.576875 433.5359375 207.576875 433.5359375 206.125 433.0625 C203 432 203 432 201 431 C201 430.34 201 429.68 201 429 C200.21625 428.855625 199.4325 428.71125 198.625 428.5625 C196 428 196 428 194 427 C194 426.34 194 425.68 194 425 C193.13375 424.7525 192.2675 424.505 191.375 424.25 C187.80294764 422.92701765 185.13826526 421.13669124 182 419 C180.35380887 418.28426473 178.69271945 417.5974304 177 417 C177 416.34 177 415.68 177 415 C175.576875 414.5359375 175.576875 414.5359375 174.125 414.0625 C171 413 171 413 169 412 C169 411.34 169 410.68 169 410 C167.7934375 409.6596875 167.7934375 409.6596875 166.5625 409.3125 C162.08714261 407.66368412 158.11278682 405.39455588 154 403 C154 402.34 154 401.68 154 401 C152.515 400.6596875 152.515 400.6596875 151 400.3125 C146.57643649 399.05508624 142.57576049 396.89775915 139 394 C139 393.34 139 392.68 139 392 C137.8553125 391.690625 137.8553125 391.690625 136.6875 391.375 C131.50101406 389.44105609 126.80966916 386.7214854 122 384 C122 383.34 122 382.68 122 382 C121.0925 381.731875 120.185 381.46375 119.25 381.1875 C116.22529089 380.08231782 114.50164226 378.9367553 112 377 C110.35202764 376.28837557 108.68834592 375.60968047 107 375 C107 374.34 107 373.68 107 373 C106.05125 372.690625 105.1025 372.38125 104.125 372.0625 C101 371 101 371 99 370 C99 369.34 99 368.68 99 368 C98.195625 367.773125 97.39125 367.54625 96.5625 367.3125 C92.08714261 365.66368412 88.11278682 363.39455588 84 361 C84 360.34 84 359.68 84 359 C79.545 357.515 79.545 357.515 75 356 C75 355.34 75 354.68 75 354 C74.05125 353.690625 73.1025 353.38125 72.125 353.0625 C69 352 69 352 67 351 C67 350.34 67 349.68 67 349 C66.195625 348.773125 65.39125 348.54625 64.5625 348.3125 C60.08714261 346.66368412 56.11278682 344.39455588 52 342 C52 341.34 52 340.68 52 340 C50.7315625 339.62875 50.7315625 339.62875 49.4375 339.25 C45.60923912 337.85790513 42.49491995 336.08350997 39 334 C38.34 333.67 37.68 333.34 37 333 C37 332.34 37 331.68 37 331 C35.7315625 330.62875 35.7315625 330.62875 34.4375 330.25 C29.52207009 328.46257094 25.35548982 325.90365988 21 323 C21 322.34 21 321.68 21 321 C20.2575 320.87625 19.515 320.7525 18.75 320.625 C16.19858515 320.04513299 14.2732427 319.26291261 12 318 C12 317.34 12 316.68 12 316 C10.9275 315.731875 9.855 315.46375 8.75 315.1875 C3.46400397 313.51360126 3.46400397 313.51360126 1 311 C0.48143864 308.08572388 0.48143864 308.08572388 0.45509338 304.43798828 C0.43973985 303.42771104 0.43973985 303.42771104 0.42407614 302.39702415 C0.3945537 300.12121738 0.39376291 297.84629813 0.39282227 295.5703125 C0.3778605 293.92556229 0.36123463 292.28082651 0.34308434 290.6361084 C0.29845155 286.09513084 0.27958568 281.5543527 0.2653091 277.01319122 C0.24993405 273.1188943 0.21993697 269.22476438 0.18993503 265.33055687 C0.08184066 251.22049028 0.03607597 237.11040663 0 223 C-0.00629847 220.69010416 -0.01259781 218.38020833 -0.01889801 216.0703125 C-0.10556768 183.16066482 -0.1019957 150.25116436 -0.07203043 117.34144306 C-0.06052594 104.4958213 -0.05527389 91.65019875 -0.05032361 78.80457306 C-0.04007193 52.53637632 -0.02266864 26.26818877 0 0 Z " fill="#81ECDE" transform="translate(80,258)"/>
<path d="M0 0 C0.33 0 0.66 0 1 0 C1.75229891 19.67981944 2.15038989 39.3035513 2 59 C2.66 59.33 3.32 59.66 4 60 C3 61 3 61 0.4375 61.0625 C-0.366875 61.041875 -1.17125 61.02125 -2 61 C-1.01 60.505 -1.01 60.505 0 60 C0 40.2 0 20.4 0 0 Z " fill="#0FBFA9" transform="translate(348,667)"/>
</svg>
