<svg width="80" height="80" viewBox="0 0 80 80" fill="none" xmlns="http://www.w3.org/2000/svg">
<g clip-path="url(#clip0_2006_187)">
<path d="M11 64.5471L20.8469 1.53831C20.9059 1.16175 21.0816 0.813236 21.3494 0.541993C21.6172 0.270749 21.9634 0.0904844 22.3392 0.0266594C22.7149 -0.0371655 23.1012 0.0186753 23.4436 0.186295C23.7859 0.353914 24.0669 0.62484 24.2469 0.960806L34.4306 19.9546L38.4894 12.2258C38.6437 11.9326 38.8752 11.6872 39.1588 11.516C39.4424 11.3448 39.7674 11.2543 40.0987 11.2543C40.4301 11.2543 40.7551 11.3448 41.0387 11.516C41.3223 11.6872 41.5538 11.9326 41.7081 12.2258L69.1894 64.5471H11Z" fill="#FFA000"/>
<path d="M57.0181 40.0028L46.4256 19.9453L23 64.5472L57.0181 40.0028Z" fill="#F57C00"/>
<path d="M69.1894 64.5478L61.6475 17.8778C61.5918 17.5489 61.4466 17.2416 61.2279 16.9896C61.0092 16.7376 60.7254 16.5506 60.4075 16.4491C60.0897 16.3479 59.7503 16.336 59.4262 16.4147C59.1021 16.4934 58.8059 16.6596 58.57 16.8953L11 64.5472L37.3219 79.3085C38.1348 79.7622 39.0503 80.0004 39.9813 80.0004C40.9122 80.0004 41.8277 79.7622 42.6406 79.3085L69.1894 64.5478Z" fill="#FFCA28"/>
<path d="M61.6794 17.8771C61.6236 17.5482 61.4785 17.2409 61.2598 16.9889C61.0411 16.7369 60.7572 16.5499 60.4394 16.4484C60.1217 16.3471 59.7822 16.3351 59.4582 16.4137C59.1341 16.4923 58.8379 16.6584 58.6019 16.894L49.16 26.3609L41.7356 12.2259C41.5813 11.9327 41.3498 11.6873 41.0662 11.5161C40.7826 11.3449 40.4576 11.2544 40.1263 11.2544C39.7949 11.2544 39.4699 11.3449 39.1863 11.5161C38.9027 11.6873 38.6712 11.9327 38.5169 12.2259L34.4581 19.954L24.2744 0.960898C24.0941 0.624469 23.8127 0.353261 23.4698 0.185679C23.1269 0.0180979 22.7399 -0.0373637 22.3637 0.0271481C21.9878 0.0916422 21.6417 0.272683 21.3743 0.544668C21.1069 0.816652 20.9318 1.16581 20.8738 1.54277L11.0319 64.5471H11L11.0312 64.5834L11.2906 64.7109L58.5881 17.3584C58.824 17.1215 59.1206 16.9542 59.4454 16.8748C59.7701 16.7955 60.1105 16.8072 60.429 16.9086C60.7476 17.0101 61.032 17.1974 61.251 17.45C61.47 17.7025 61.6152 18.0106 61.6706 18.3403L69.1487 64.5921L69.2213 64.5465L61.6794 17.8771ZM11.1181 64.4609L20.8781 1.9884C20.9361 1.61124 21.1113 1.26187 21.3788 0.989756C21.6463 0.71764 21.9926 0.53656 22.3687 0.472148C22.745 0.407691 23.132 0.463245 23.4749 0.630943C23.8178 0.79864 24.0992 1.06998 24.2794 1.40652L34.4619 20.4003L38.5212 12.6715C38.6756 12.3784 38.9071 12.1329 39.1907 11.9617C39.4743 11.7905 39.7993 11.7 40.1306 11.7C40.4619 11.7 40.7869 11.7905 41.0706 11.9617C41.3542 12.1329 41.5857 12.3784 41.74 12.6715L49.0138 26.5059L11.1169 64.4609H11.1181Z" fill="white" fill-opacity="0.2"/>
<path opacity="0.2" d="M42.6419 78.862C41.829 79.3158 40.9135 79.554 39.9825 79.554C39.0515 79.554 38.136 79.3158 37.3231 78.862L11.0637 64.1433L11 64.5477L37.3219 79.3039C38.1348 79.7577 39.0503 79.9959 39.9812 79.9959C40.9122 79.9959 41.8277 79.7577 42.6406 79.3039L69.1906 64.5477L69.1219 64.1289L42.6406 78.8633L42.6419 78.862Z" fill="#A52714"/>
</g>
<defs>
<clipPath id="clip0_2006_187">
<rect width="80" height="80" fill="white"/>
</clipPath>
</defs>
</svg>
