<svg width="22" height="25" viewBox="0 0 22 25" fill="none" xmlns="http://www.w3.org/2000/svg">
<g clip-path="url(#clip0_2006_247)">
<path d="M10.2738 11.5947L0.0908203 22.2634C0.205174 22.6687 0.410672 23.0424 0.691605 23.3561C0.972537 23.6698 1.32147 23.915 1.71172 24.0732C2.10197 24.2313 2.52322 24.2981 2.94326 24.2685C3.36329 24.2389 3.771 24.1137 4.13521 23.9023L15.593 17.3768L10.2738 11.5947Z" fill="#EA4335"/>
<path d="M20.571 9.78136L15.6162 6.94336L10.0391 11.8375L15.6389 17.3616L20.5559 14.554C20.9915 14.3259 21.3564 13.9829 21.6109 13.5623C21.8655 13.1416 22.0001 12.6593 22.0001 12.1676C22.0001 11.6759 21.8655 11.1936 21.6109 10.773C21.3564 10.3523 20.9915 10.0094 20.5559 9.78127L20.571 9.78136Z" fill="#FBBC04"/>
<path d="M0.0911203 2.01855C0.0296057 2.24611 -0.00103337 2.4809 2.6586e-05 2.71663V21.565C0.000633999 21.8007 0.0312448 22.0353 0.0911203 22.2632L10.6232 11.8677L0.0911203 2.01855Z" fill="#4285F4"/>
<path d="M10.3497 12.1407L15.6158 6.94298L4.17319 0.386982C3.74267 0.134859 3.25302 0.00133424 2.75411 5.27058e-06C1.51601 -0.00240098 0.427523 0.819333 0.0908203 2.01086L10.3497 12.1407Z" fill="#34A853"/>
</g>
<defs>
<clipPath id="clip0_2006_247">
<rect width="22" height="24.3203" fill="white"/>
</clipPath>
</defs>
</svg>
