<svg width="80" height="61" viewBox="0 0 80 61" fill="none" xmlns="http://www.w3.org/2000/svg">
<path d="M13.3333 6.99967V40.333H30V26.9997C30 25.2316 30.7024 23.5359 31.9526 22.2856C33.2029 21.0354 34.8986 20.333 36.6667 20.333H53.3333C55.1014 20.333 56.7971 21.0354 58.0474 22.2856C59.2976 23.5359 60 25.2316 60 26.9997V40.333H66.6667V6.99967H13.3333ZM0 53.6663V46.9997H13.3333C11.5652 46.9997 9.86953 46.2973 8.61929 45.0471C7.36905 43.7968 6.66667 42.1011 6.66667 40.333V6.99967C6.66667 5.23156 7.36905 3.53587 8.61929 2.28563C9.86953 1.03539 11.5652 0.333008 13.3333 0.333008H66.6667C68.4348 0.333008 70.1305 1.03539 71.3807 2.28563C72.631 3.53587 73.3333 5.23156 73.3333 6.99967V40.333C73.3333 42.1011 72.631 43.7968 71.3807 45.0471C70.1305 46.2973 68.4348 46.9997 66.6667 46.9997H80V53.6663H60C60 55.4344 59.2976 57.1301 58.0474 58.3804C56.7971 59.6306 55.1014 60.333 53.3333 60.333H36.6667C34.8986 60.333 33.2029 59.6306 31.9526 58.3804C30.7024 57.1301 30 55.4344 30 53.6663H0ZM38.3333 53.6663C37.8913 53.6663 37.4674 53.8419 37.1548 54.1545C36.8423 54.4671 36.6667 54.891 36.6667 55.333C36.6667 55.775 36.8423 56.199 37.1548 56.5115C37.4674 56.8241 37.8913 56.9997 38.3333 56.9997C38.7754 56.9997 39.1993 56.8241 39.5118 56.5115C39.8244 56.199 40 55.775 40 55.333C40 54.891 39.8244 54.4671 39.5118 54.1545C39.1993 53.8419 38.7754 53.6663 38.3333 53.6663ZM51.6667 53.6663C51.2246 53.6663 50.8007 53.8419 50.4882 54.1545C50.1756 54.4671 50 54.891 50 55.333C50 55.775 50.1756 56.199 50.4882 56.5115C50.8007 56.8241 51.2246 56.9997 51.6667 56.9997C52.1087 56.9997 52.5326 56.8241 52.8452 56.5115C53.1577 56.199 53.3333 55.775 53.3333 55.333C53.3333 54.891 53.1577 54.4671 52.8452 54.1545C52.5326 53.8419 52.1087 53.6663 51.6667 53.6663ZM43.3333 53.6663V56.9997H46.6667V53.6663H43.3333ZM36.6667 26.9997V50.333H53.3333V26.9997H36.6667Z" fill="url(#paint0_linear_2006_204)"/>
<defs>
<linearGradient id="paint0_linear_2006_204" x1="-1.62982e-08" y1="15.0464" x2="74.6053" y2="60.0952" gradientUnits="userSpaceOnUse">
<stop offset="0.395" stop-color="#D83F81"/>
<stop offset="1" stop-color="#4CA2E8"/>
</linearGradient>
</defs>
</svg>
